<mxfile host="app.diagrams.net" agent="Mozilla/5.0 (Windows NT 10.0; Win64; x64) AppleWebKit/537.36 (KHTML, like Gecko) Chrome/132.0.0.0 Safari/537.36" version="26.0.11">
  <diagram name="페이지-1" id="AWM7qZDPXtuLESgdqCHf">
    <mxGraphModel dx="1596" dy="714" grid="0" gridSize="10" guides="1" tooltips="1" connect="1" arrows="1" fold="1" page="0" pageScale="1" pageWidth="827" pageHeight="1169" math="0" shadow="0">
      <root>
        <mxCell id="0" />
        <mxCell id="1" parent="0" />
        <mxCell id="gUdXLzQhLkX2P0Ms3YXl-84" style="edgeStyle=none;curved=1;rounded=0;orthogonalLoop=1;jettySize=auto;html=1;exitX=0.5;exitY=0.5;exitDx=0;exitDy=0;exitPerimeter=0;entryX=0.602;entryY=0.034;entryDx=0;entryDy=0;entryPerimeter=0;strokeColor=#000000;fontSize=12;fontColor=#143642;startSize=8;endSize=8;fillColor=#FAE5C7;" edge="1" parent="1" source="UEbt48Vx01n2Dc3In6SP-16" target="gUdXLzQhLkX2P0Ms3YXl-58">
          <mxGeometry relative="1" as="geometry" />
        </mxCell>
        <mxCell id="gUdXLzQhLkX2P0Ms3YXl-55" style="edgeStyle=none;curved=1;rounded=0;orthogonalLoop=1;jettySize=auto;html=1;exitX=0.5;exitY=0.5;exitDx=0;exitDy=0;exitPerimeter=0;entryX=0.033;entryY=0.63;entryDx=0;entryDy=0;entryPerimeter=0;strokeColor=#000000;fontSize=12;fontColor=#143642;startSize=8;endSize=8;fillColor=#FAE5C7;" edge="1" parent="1" source="UEbt48Vx01n2Dc3In6SP-18" target="UEbt48Vx01n2Dc3In6SP-33">
          <mxGeometry relative="1" as="geometry" />
        </mxCell>
        <mxCell id="gUdXLzQhLkX2P0Ms3YXl-36" style="edgeStyle=none;curved=1;rounded=0;orthogonalLoop=1;jettySize=auto;html=1;exitX=0.5;exitY=0.5;exitDx=0;exitDy=0;exitPerimeter=0;strokeColor=#000000;fontSize=12;fontColor=#143642;startSize=8;endSize=8;fillColor=#FAE5C7;" edge="1" parent="1" source="6D0cX5ulEbAhDJw4pdyL-93" target="gUdXLzQhLkX2P0Ms3YXl-30">
          <mxGeometry relative="1" as="geometry" />
        </mxCell>
        <mxCell id="gUdXLzQhLkX2P0Ms3YXl-2" style="edgeStyle=none;curved=1;rounded=0;orthogonalLoop=1;jettySize=auto;html=1;exitX=0.5;exitY=0.5;exitDx=0;exitDy=0;exitPerimeter=0;strokeColor=#000000;fontSize=12;fontColor=#143642;startSize=8;endSize=8;fillColor=#FAE5C7;entryX=0.007;entryY=0.373;entryDx=0;entryDy=0;entryPerimeter=0;" edge="1" parent="1" source="UEbt48Vx01n2Dc3In6SP-17" target="UEbt48Vx01n2Dc3In6SP-24">
          <mxGeometry relative="1" as="geometry" />
        </mxCell>
        <mxCell id="gUdXLzQhLkX2P0Ms3YXl-3" style="edgeStyle=none;curved=1;rounded=0;orthogonalLoop=1;jettySize=auto;html=1;exitX=0.5;exitY=0.5;exitDx=0;exitDy=0;exitPerimeter=0;entryX=0.073;entryY=0.256;entryDx=0;entryDy=0;entryPerimeter=0;strokeColor=#000000;fontSize=12;fontColor=#143642;startSize=8;endSize=8;fillColor=#FAE5C7;" edge="1" parent="1" source="UEbt48Vx01n2Dc3In6SP-16" target="UEbt48Vx01n2Dc3In6SP-24">
          <mxGeometry relative="1" as="geometry" />
        </mxCell>
        <mxCell id="gUdXLzQhLkX2P0Ms3YXl-1" style="edgeStyle=none;curved=1;rounded=0;orthogonalLoop=1;jettySize=auto;html=1;exitX=0.5;exitY=0.5;exitDx=0;exitDy=0;exitPerimeter=0;strokeColor=#000000;fontSize=12;fontColor=#143642;startSize=8;endSize=8;fillColor=#FAE5C7;entryX=0;entryY=0.5;entryDx=0;entryDy=0;" edge="1" parent="1" source="UEbt48Vx01n2Dc3In6SP-18" target="UEbt48Vx01n2Dc3In6SP-24">
          <mxGeometry relative="1" as="geometry">
            <mxPoint x="620" y="870" as="targetPoint" />
          </mxGeometry>
        </mxCell>
        <mxCell id="Cf7tjXocuC5NtAsNGylG-31" style="edgeStyle=none;curved=1;rounded=0;orthogonalLoop=1;jettySize=auto;html=1;exitX=0.5;exitY=0.5;exitDx=0;exitDy=0;exitPerimeter=0;entryX=0.5;entryY=0;entryDx=0;entryDy=0;strokeColor=#000000;fontSize=12;fontColor=#143642;startSize=8;endSize=8;fillColor=#FAE5C7;" parent="1" source="6D0cX5ulEbAhDJw4pdyL-93" target="Cf7tjXocuC5NtAsNGylG-17" edge="1">
          <mxGeometry relative="1" as="geometry" />
        </mxCell>
        <mxCell id="Cf7tjXocuC5NtAsNGylG-12" style="edgeStyle=none;curved=1;rounded=0;orthogonalLoop=1;jettySize=auto;html=1;exitX=0.5;exitY=0;exitDx=0;exitDy=0;fontSize=12;startSize=8;endSize=8;labelBackgroundColor=none;strokeColor=#000000;fontColor=default;entryX=0.5;entryY=1;entryDx=0;entryDy=0;" parent="1" source="UEbt48Vx01n2Dc3In6SP-67" edge="1" target="6D0cX5ulEbAhDJw4pdyL-106">
          <mxGeometry relative="1" as="geometry">
            <mxPoint x="220" y="215" as="targetPoint" />
          </mxGeometry>
        </mxCell>
        <object placeholders="1" c4Name="다해줘 홈즈" c4Type="SystemScopeBoundary" c4Application="명탐정 코난" label="&lt;font style=&quot;font-size: 16px&quot;&gt;&lt;b&gt;&lt;div style=&quot;text-align: left&quot;&gt;%c4Name%&lt;/div&gt;&lt;/b&gt;&lt;/font&gt;&lt;div style=&quot;text-align: left&quot;&gt;[%c4Application%]&lt;/div&gt;" id="ycFsrCb-pIJ5EY6Nro4r-1">
          <mxCell style="rounded=1;fontSize=11;whiteSpace=wrap;html=1;dashed=1;arcSize=20;fillColor=none;strokeColor=#000000;fontColor=#143642;labelBackgroundColor=none;align=left;verticalAlign=bottom;labelBorderColor=none;spacingTop=0;spacing=10;dashPattern=8 4;metaEdit=1;rotatable=0;perimeter=rectanglePerimeter;noLabel=0;labelPadding=0;allowArrows=0;connectable=0;expand=0;recursiveResize=0;editable=1;pointerEvents=0;absoluteArcSize=1;points=[[0.25,0,0],[0.5,0,0],[0.75,0,0],[1,0.25,0],[1,0.5,0],[1,0.75,0],[0.75,1,0],[0.5,1,0],[0.25,1,0],[0,0.75,0],[0,0.5,0],[0,0.25,0]];" parent="1" vertex="1">
            <mxGeometry x="-102" y="76" width="1186" height="1436" as="geometry" />
          </mxCell>
        </object>
        <mxCell id="ycFsrCb-pIJ5EY6Nro4r-4" value="회원 가입" style="ellipse;whiteSpace=wrap;html=1;labelBackgroundColor=none;fillColor=#FAE5C7;strokeColor=#000000;fontColor=#143642;" parent="1" vertex="1">
          <mxGeometry x="56" y="1392" width="100" height="50" as="geometry" />
        </mxCell>
        <mxCell id="UEbt48Vx01n2Dc3In6SP-4" value="비밀번호&amp;nbsp;&lt;div&gt;찾기&lt;/div&gt;" style="ellipse;whiteSpace=wrap;html=1;labelBackgroundColor=none;fillColor=#FAE5C7;strokeColor=#000000;fontColor=#143642;" parent="1" vertex="1">
          <mxGeometry x="593" y="1246" width="70" height="40" as="geometry" />
        </mxCell>
        <mxCell id="UEbt48Vx01n2Dc3In6SP-6" value="내가 작성한 후기&amp;nbsp;&lt;div&gt;모아보기&lt;/div&gt;" style="ellipse;whiteSpace=wrap;html=1;labelBackgroundColor=none;fillColor=#FAE5C7;strokeColor=#000000;fontColor=#143642;" parent="1" vertex="1">
          <mxGeometry x="856" y="1167" width="129.5" height="47" as="geometry" />
        </mxCell>
        <mxCell id="UEbt48Vx01n2Dc3In6SP-7" value="프로필 조회" style="ellipse;whiteSpace=wrap;html=1;labelBackgroundColor=none;fillColor=#FAE5C7;strokeColor=#000000;fontColor=#143642;" parent="1" vertex="1">
          <mxGeometry x="780" y="1170.5" width="70" height="40" as="geometry" />
        </mxCell>
        <mxCell id="UEbt48Vx01n2Dc3In6SP-8" value="개인정보&lt;div&gt;수정&lt;/div&gt;" style="ellipse;whiteSpace=wrap;html=1;labelBackgroundColor=none;fillColor=#FAE5C7;strokeColor=#000000;fontColor=#143642;" parent="1" vertex="1">
          <mxGeometry x="907.5" y="1234" width="70" height="40" as="geometry" />
        </mxCell>
        <mxCell id="UEbt48Vx01n2Dc3In6SP-9" value="마이페이지" style="ellipse;whiteSpace=wrap;html=1;labelBackgroundColor=none;fillColor=#FAE5C7;strokeColor=#000000;fontColor=#143642;" parent="1" vertex="1">
          <mxGeometry x="809.5" y="1240" width="70" height="40" as="geometry" />
        </mxCell>
        <mxCell id="UEbt48Vx01n2Dc3In6SP-10" value="회원 탈퇴" style="ellipse;whiteSpace=wrap;html=1;labelBackgroundColor=none;fillColor=#FAE5C7;strokeColor=#000000;fontColor=#143642;" parent="1" vertex="1">
          <mxGeometry x="717" y="1210.5" width="70" height="40" as="geometry" />
        </mxCell>
        <mxCell id="Cf7tjXocuC5NtAsNGylG-30" style="edgeStyle=none;curved=1;rounded=0;orthogonalLoop=1;jettySize=auto;html=1;exitX=0.5;exitY=0.5;exitDx=0;exitDy=0;exitPerimeter=0;entryX=0.35;entryY=0;entryDx=0;entryDy=0;strokeColor=#000000;fontSize=12;fontColor=#143642;startSize=8;endSize=8;fillColor=#FAE5C7;entryPerimeter=0;" parent="1" source="UEbt48Vx01n2Dc3In6SP-16" target="Cf7tjXocuC5NtAsNGylG-17" edge="1">
          <mxGeometry relative="1" as="geometry" />
        </mxCell>
        <mxCell id="gUdXLzQhLkX2P0Ms3YXl-39" style="edgeStyle=none;curved=1;rounded=0;orthogonalLoop=1;jettySize=auto;html=1;exitX=0.5;exitY=0.5;exitDx=0;exitDy=0;exitPerimeter=0;entryX=0.35;entryY=0.084;entryDx=0;entryDy=0;strokeColor=#000000;fontSize=12;fontColor=#143642;startSize=8;endSize=8;fillColor=#FAE5C7;entryPerimeter=0;" edge="1" parent="1" source="UEbt48Vx01n2Dc3In6SP-16" target="gUdXLzQhLkX2P0Ms3YXl-30">
          <mxGeometry relative="1" as="geometry" />
        </mxCell>
        <mxCell id="gUdXLzQhLkX2P0Ms3YXl-48" style="edgeStyle=none;curved=1;rounded=0;orthogonalLoop=1;jettySize=auto;html=1;exitX=0.5;exitY=0.5;exitDx=0;exitDy=0;exitPerimeter=0;strokeColor=#000000;fontSize=12;fontColor=#143642;startSize=8;endSize=8;fillColor=#FAE5C7;entryX=0.009;entryY=0.331;entryDx=0;entryDy=0;entryPerimeter=0;" edge="1" parent="1" source="UEbt48Vx01n2Dc3In6SP-16" target="UEbt48Vx01n2Dc3In6SP-61">
          <mxGeometry relative="1" as="geometry">
            <mxPoint x="727" y="565" as="targetPoint" />
          </mxGeometry>
        </mxCell>
        <mxCell id="UEbt48Vx01n2Dc3In6SP-16" value="부동산&lt;div&gt;업체&lt;/div&gt;" style="shape=umlActor;verticalLabelPosition=bottom;verticalAlign=top;html=1;outlineConnect=0;labelBackgroundColor=none;fillColor=#FAE5C7;strokeColor=#000000;fontColor=#143642;" parent="1" vertex="1">
          <mxGeometry x="-10.5" y="470" width="30" height="60" as="geometry" />
        </mxCell>
        <mxCell id="Cf7tjXocuC5NtAsNGylG-28" style="edgeStyle=none;curved=1;rounded=0;orthogonalLoop=1;jettySize=auto;html=1;exitX=0.5;exitY=0.5;exitDx=0;exitDy=0;exitPerimeter=0;strokeColor=#000000;fontSize=12;fontColor=#143642;startSize=8;endSize=8;fillColor=#FAE5C7;entryX=0.217;entryY=0.106;entryDx=0;entryDy=0;entryPerimeter=0;" parent="1" source="UEbt48Vx01n2Dc3In6SP-17" target="Cf7tjXocuC5NtAsNGylG-17" edge="1">
          <mxGeometry relative="1" as="geometry">
            <mxPoint x="226" y="930" as="targetPoint" />
          </mxGeometry>
        </mxCell>
        <mxCell id="gUdXLzQhLkX2P0Ms3YXl-34" style="edgeStyle=none;curved=1;rounded=0;orthogonalLoop=1;jettySize=auto;html=1;exitX=0.5;exitY=0.5;exitDx=0;exitDy=0;exitPerimeter=0;strokeColor=#000000;fontSize=12;fontColor=#143642;startSize=8;endSize=8;fillColor=#FAE5C7;" edge="1" parent="1" source="UEbt48Vx01n2Dc3In6SP-17" target="gUdXLzQhLkX2P0Ms3YXl-30">
          <mxGeometry relative="1" as="geometry" />
        </mxCell>
        <mxCell id="gUdXLzQhLkX2P0Ms3YXl-47" style="edgeStyle=none;curved=1;rounded=0;orthogonalLoop=1;jettySize=auto;html=1;exitX=0.5;exitY=0.5;exitDx=0;exitDy=0;exitPerimeter=0;strokeColor=#000000;fontSize=12;fontColor=#143642;startSize=8;endSize=8;fillColor=#FAE5C7;entryX=0;entryY=0.5;entryDx=0;entryDy=0;" edge="1" parent="1" source="UEbt48Vx01n2Dc3In6SP-17" target="UEbt48Vx01n2Dc3In6SP-61">
          <mxGeometry relative="1" as="geometry">
            <mxPoint x="729.2857113792784" y="574.1905081612722" as="targetPoint" />
          </mxGeometry>
        </mxCell>
        <mxCell id="gUdXLzQhLkX2P0Ms3YXl-78" style="edgeStyle=none;curved=1;rounded=0;orthogonalLoop=1;jettySize=auto;html=1;exitX=0.5;exitY=0.5;exitDx=0;exitDy=0;exitPerimeter=0;entryX=0.094;entryY=0.793;entryDx=0;entryDy=0;strokeColor=#000000;fontSize=12;fontColor=#143642;startSize=8;endSize=8;fillColor=#FAE5C7;entryPerimeter=0;" edge="1" parent="1" source="UEbt48Vx01n2Dc3In6SP-17" target="UEbt48Vx01n2Dc3In6SP-19">
          <mxGeometry relative="1" as="geometry" />
        </mxCell>
        <mxCell id="gUdXLzQhLkX2P0Ms3YXl-83" style="edgeStyle=none;curved=1;rounded=0;orthogonalLoop=1;jettySize=auto;html=1;exitX=0.5;exitY=0.5;exitDx=0;exitDy=0;exitPerimeter=0;entryX=0.5;entryY=0;entryDx=0;entryDy=0;strokeColor=#000000;fontSize=12;fontColor=#143642;startSize=8;endSize=8;fillColor=#FAE5C7;" edge="1" parent="1" source="UEbt48Vx01n2Dc3In6SP-17" target="gUdXLzQhLkX2P0Ms3YXl-58">
          <mxGeometry relative="1" as="geometry" />
        </mxCell>
        <mxCell id="UEbt48Vx01n2Dc3In6SP-17" value="인테리어&amp;nbsp;&lt;div&gt;업체&lt;/div&gt;" style="shape=umlActor;verticalLabelPosition=bottom;verticalAlign=top;html=1;outlineConnect=0;labelBackgroundColor=none;fillColor=#FAE5C7;strokeColor=#000000;fontColor=#143642;" parent="1" vertex="1">
          <mxGeometry x="-10.5" y="650" width="30" height="60" as="geometry" />
        </mxCell>
        <mxCell id="Cf7tjXocuC5NtAsNGylG-27" style="edgeStyle=none;curved=1;rounded=0;orthogonalLoop=1;jettySize=auto;html=1;exitX=0.5;exitY=0.5;exitDx=0;exitDy=0;exitPerimeter=0;strokeColor=#000000;fontSize=12;fontColor=#143642;startSize=8;endSize=8;fillColor=#FAE5C7;" parent="1" source="UEbt48Vx01n2Dc3In6SP-18" edge="1">
          <mxGeometry relative="1" as="geometry">
            <mxPoint x="122" y="955" as="targetPoint" />
            <Array as="points">
              <mxPoint x="104" y="939" />
            </Array>
          </mxGeometry>
        </mxCell>
        <mxCell id="gUdXLzQhLkX2P0Ms3YXl-35" style="edgeStyle=none;curved=1;rounded=0;orthogonalLoop=1;jettySize=auto;html=1;exitX=0.5;exitY=0.5;exitDx=0;exitDy=0;exitPerimeter=0;strokeColor=#000000;fontSize=12;fontColor=#143642;startSize=8;endSize=8;fillColor=#FAE5C7;" edge="1" parent="1" source="UEbt48Vx01n2Dc3In6SP-18" target="gUdXLzQhLkX2P0Ms3YXl-30">
          <mxGeometry relative="1" as="geometry" />
        </mxCell>
        <mxCell id="gUdXLzQhLkX2P0Ms3YXl-82" style="edgeStyle=none;curved=1;rounded=0;orthogonalLoop=1;jettySize=auto;html=1;exitX=0.5;exitY=0.5;exitDx=0;exitDy=0;exitPerimeter=0;strokeColor=#000000;fontSize=12;fontColor=#143642;startSize=8;endSize=8;fillColor=#FAE5C7;" edge="1" parent="1" source="UEbt48Vx01n2Dc3In6SP-18" target="gUdXLzQhLkX2P0Ms3YXl-58">
          <mxGeometry relative="1" as="geometry" />
        </mxCell>
        <mxCell id="UEbt48Vx01n2Dc3In6SP-18" value="이사&lt;div&gt;업체&lt;/div&gt;" style="shape=umlActor;verticalLabelPosition=bottom;verticalAlign=top;html=1;outlineConnect=0;labelBackgroundColor=none;fillColor=#FAE5C7;strokeColor=#000000;fontColor=#143642;" parent="1" vertex="1">
          <mxGeometry x="-10.5" y="830" width="30" height="60" as="geometry" />
        </mxCell>
        <mxCell id="UEbt48Vx01n2Dc3In6SP-19" value="게시글 관리" style="ellipse;whiteSpace=wrap;html=1;labelBackgroundColor=none;fillColor=#FAE5C7;strokeColor=#000000;fontColor=#143642;" parent="1" vertex="1">
          <mxGeometry x="229.5" y="400" width="90" height="90" as="geometry" />
        </mxCell>
        <mxCell id="UEbt48Vx01n2Dc3In6SP-21" value="게시글 수정" style="ellipse;whiteSpace=wrap;html=1;labelBackgroundColor=none;fillColor=#FAE5C7;strokeColor=#000000;fontColor=#143642;" parent="1" vertex="1">
          <mxGeometry x="239.5" y="320" width="70" height="40" as="geometry" />
        </mxCell>
        <mxCell id="UEbt48Vx01n2Dc3In6SP-22" value="게시글 삭제" style="ellipse;whiteSpace=wrap;html=1;labelBackgroundColor=none;fillColor=#FAE5C7;strokeColor=#000000;fontColor=#143642;" parent="1" vertex="1">
          <mxGeometry x="344" y="320" width="70" height="40" as="geometry" />
        </mxCell>
        <mxCell id="UEbt48Vx01n2Dc3In6SP-23" value="상세조회" style="ellipse;whiteSpace=wrap;html=1;labelBackgroundColor=none;fillColor=#FAE5C7;strokeColor=#000000;fontColor=#143642;" parent="1" vertex="1">
          <mxGeometry x="960" y="893" width="70" height="40" as="geometry" />
        </mxCell>
        <mxCell id="UEbt48Vx01n2Dc3In6SP-24" value="&amp;nbsp;커뮤니티 게시글" style="ellipse;whiteSpace=wrap;html=1;labelBackgroundColor=none;fillColor=#FAE5C7;strokeColor=#000000;fontColor=#143642;" parent="1" vertex="1">
          <mxGeometry x="780" y="890" width="110" height="75" as="geometry" />
        </mxCell>
        <mxCell id="UEbt48Vx01n2Dc3In6SP-28" value="이용 후기" style="ellipse;whiteSpace=wrap;html=1;labelBackgroundColor=none;fillColor=#FAE5C7;strokeColor=#000000;fontColor=#143642;" parent="1" vertex="1">
          <mxGeometry x="460" y="750" width="120" height="80" as="geometry" />
        </mxCell>
        <mxCell id="UEbt48Vx01n2Dc3In6SP-30" value="후기 조회" style="ellipse;whiteSpace=wrap;html=1;labelBackgroundColor=none;fillColor=#FAE5C7;strokeColor=#000000;fontColor=#143642;" parent="1" vertex="1">
          <mxGeometry x="414" y="847.5" width="68" height="40" as="geometry" />
        </mxCell>
        <mxCell id="UEbt48Vx01n2Dc3In6SP-48" value="업체 정보&lt;div&gt;삭제&lt;/div&gt;" style="ellipse;whiteSpace=wrap;html=1;labelBackgroundColor=none;fillColor=#FAE5C7;strokeColor=#000000;fontColor=#143642;" parent="1" vertex="1">
          <mxGeometry x="497.5" y="443" width="72" height="40" as="geometry" />
        </mxCell>
        <mxCell id="UEbt48Vx01n2Dc3In6SP-49" value="업체 정보&lt;div&gt;조회&lt;/div&gt;" style="ellipse;whiteSpace=wrap;html=1;labelBackgroundColor=none;fillColor=#FAE5C7;strokeColor=#000000;fontColor=#143642;" parent="1" vertex="1">
          <mxGeometry x="490" y="580" width="70" height="40" as="geometry" />
        </mxCell>
        <mxCell id="UEbt48Vx01n2Dc3In6SP-52" value="댓글 삭제" style="ellipse;whiteSpace=wrap;html=1;labelBackgroundColor=none;fillColor=#FAE5C7;strokeColor=#000000;fontColor=#143642;" parent="1" vertex="1">
          <mxGeometry x="830" y="1018" width="70" height="40" as="geometry" />
        </mxCell>
        <mxCell id="UEbt48Vx01n2Dc3In6SP-53" value="댓글 수정" style="ellipse;whiteSpace=wrap;html=1;labelBackgroundColor=none;fillColor=#FAE5C7;strokeColor=#000000;fontColor=#143642;" parent="1" vertex="1">
          <mxGeometry x="915.5" y="1005" width="70" height="40" as="geometry" />
        </mxCell>
        <mxCell id="UEbt48Vx01n2Dc3In6SP-54" value="댓글 작성" style="ellipse;whiteSpace=wrap;html=1;labelBackgroundColor=none;fillColor=#FAE5C7;strokeColor=#000000;fontColor=#143642;" parent="1" vertex="1">
          <mxGeometry x="947" y="952" width="70" height="40" as="geometry" />
        </mxCell>
        <mxCell id="UEbt48Vx01n2Dc3In6SP-55" value="상담 관리" style="ellipse;whiteSpace=wrap;html=1;labelBackgroundColor=none;fillColor=#FAE5C7;strokeColor=#000000;fontColor=#143642;" parent="1" vertex="1">
          <mxGeometry x="569.5" y="837" width="112" height="77" as="geometry" />
        </mxCell>
        <mxCell id="UEbt48Vx01n2Dc3In6SP-58" value="게시글&lt;div&gt;좋아요&lt;/div&gt;" style="ellipse;whiteSpace=wrap;html=1;labelBackgroundColor=none;fillColor=#FAE5C7;strokeColor=#000000;fontColor=#143642;" parent="1" vertex="1">
          <mxGeometry x="890" y="773" width="70" height="60" as="geometry" />
        </mxCell>
        <mxCell id="UEbt48Vx01n2Dc3In6SP-59" value="게시글&lt;div&gt;좋아요&lt;/div&gt;&lt;div&gt;취소&lt;/div&gt;" style="ellipse;whiteSpace=wrap;html=1;labelBackgroundColor=none;fillColor=#FAE5C7;strokeColor=#000000;fontColor=#143642;" parent="1" vertex="1">
          <mxGeometry x="813" y="754" width="70" height="60" as="geometry" />
        </mxCell>
        <mxCell id="UEbt48Vx01n2Dc3In6SP-60" value="상담 신청" style="ellipse;whiteSpace=wrap;html=1;labelBackgroundColor=none;fillColor=#FAE5C7;strokeColor=#000000;fontColor=#143642;" parent="1" vertex="1">
          <mxGeometry x="505" y="933" width="70" height="40" as="geometry" />
        </mxCell>
        <mxCell id="UEbt48Vx01n2Dc3In6SP-63" value="상담 취소" style="ellipse;whiteSpace=wrap;html=1;labelBackgroundColor=none;fillColor=#FAE5C7;strokeColor=#000000;fontColor=#143642;" parent="1" vertex="1">
          <mxGeometry x="645" y="970" width="70" height="40" as="geometry" />
        </mxCell>
        <mxCell id="UEbt48Vx01n2Dc3In6SP-64" value="대댓글 삭제" style="ellipse;whiteSpace=wrap;html=1;labelBackgroundColor=none;fillColor=#FAE5C7;strokeColor=#000000;fontColor=#143642;" parent="1" vertex="1">
          <mxGeometry x="339.5" y="642.5" width="70" height="40" as="geometry" />
        </mxCell>
        <mxCell id="UEbt48Vx01n2Dc3In6SP-66" value="대댓글 수정" style="ellipse;whiteSpace=wrap;html=1;labelBackgroundColor=none;fillColor=#FAE5C7;strokeColor=#000000;fontColor=#143642;" parent="1" vertex="1">
          <mxGeometry x="269.5" y="652.5" width="70" height="40" as="geometry" />
        </mxCell>
        <mxCell id="UEbt48Vx01n2Dc3In6SP-67" value="신고 신청" style="ellipse;whiteSpace=wrap;html=1;labelBackgroundColor=none;fillColor=#FAE5C7;strokeColor=#000000;fontColor=#143642;" parent="1" vertex="1">
          <mxGeometry x="141.5" y="1190" width="100" height="50" as="geometry" />
        </mxCell>
        <mxCell id="UEbt48Vx01n2Dc3In6SP-69" value="본인 인증" style="ellipse;whiteSpace=wrap;html=1;labelBackgroundColor=none;fillColor=#FAE5C7;strokeColor=#000000;fontColor=#143642;" parent="1" vertex="1">
          <mxGeometry x="22" y="1230" width="70" height="40" as="geometry" />
        </mxCell>
        <mxCell id="6D0cX5ulEbAhDJw4pdyL-1" value="" style="endArrow=classic;html=1;rounded=0;entryX=1;entryY=0.5;entryDx=0;entryDy=0;labelBackgroundColor=none;strokeColor=#000000;fontColor=default;exitX=0.5;exitY=0.5;exitDx=0;exitDy=0;exitPerimeter=0;" parent="1" source="ycFsrCb-pIJ5EY6Nro4r-18" target="gUdXLzQhLkX2P0Ms3YXl-59" edge="1">
          <mxGeometry width="50" height="50" relative="1" as="geometry">
            <mxPoint x="415.5" y="1470" as="sourcePoint" />
            <mxPoint x="474.5" y="1274" as="targetPoint" />
          </mxGeometry>
        </mxCell>
        <mxCell id="6D0cX5ulEbAhDJw4pdyL-2" value="" style="endArrow=classic;html=1;rounded=0;entryX=0.5;entryY=1;entryDx=0;entryDy=0;labelBackgroundColor=none;strokeColor=#000000;fontColor=default;exitX=0.5;exitY=0.5;exitDx=0;exitDy=0;exitPerimeter=0;" parent="1" source="ycFsrCb-pIJ5EY6Nro4r-18" target="UEbt48Vx01n2Dc3In6SP-28" edge="1">
          <mxGeometry width="50" height="50" relative="1" as="geometry">
            <mxPoint x="450" y="1390" as="sourcePoint" />
            <mxPoint x="394.5" y="1214" as="targetPoint" />
            <Array as="points" />
          </mxGeometry>
        </mxCell>
        <mxCell id="6D0cX5ulEbAhDJw4pdyL-3" value="" style="endArrow=classic;html=1;rounded=0;entryX=0;entryY=1;entryDx=0;entryDy=0;exitX=0.5;exitY=0.5;exitDx=0;exitDy=0;exitPerimeter=0;labelBackgroundColor=none;strokeColor=#000000;fontColor=default;" parent="1" source="ycFsrCb-pIJ5EY6Nro4r-18" target="UEbt48Vx01n2Dc3In6SP-1" edge="1">
          <mxGeometry width="50" height="50" relative="1" as="geometry">
            <mxPoint x="416" y="1309" as="sourcePoint" />
            <mxPoint x="641" y="1184" as="targetPoint" />
          </mxGeometry>
        </mxCell>
        <mxCell id="6D0cX5ulEbAhDJw4pdyL-4" value="" style="endArrow=classic;html=1;rounded=0;entryX=0.5;entryY=1;entryDx=0;entryDy=0;exitX=0.5;exitY=0.5;exitDx=0;exitDy=0;exitPerimeter=0;labelBackgroundColor=none;strokeColor=#000000;fontColor=default;" parent="1" source="ycFsrCb-pIJ5EY6Nro4r-18" target="UEbt48Vx01n2Dc3In6SP-26" edge="1">
          <mxGeometry width="50" height="50" relative="1" as="geometry">
            <mxPoint x="408.5" y="1305" as="sourcePoint" />
            <mxPoint x="554.5" y="1134" as="targetPoint" />
          </mxGeometry>
        </mxCell>
        <mxCell id="6D0cX5ulEbAhDJw4pdyL-5" value="" style="endArrow=classic;html=1;rounded=0;entryX=1;entryY=1;entryDx=0;entryDy=0;exitX=0.5;exitY=0.5;exitDx=0;exitDy=0;exitPerimeter=0;labelBackgroundColor=none;strokeColor=#000000;fontColor=default;" parent="1" source="ycFsrCb-pIJ5EY6Nro4r-18" target="UEbt48Vx01n2Dc3In6SP-67" edge="1">
          <mxGeometry width="50" height="50" relative="1" as="geometry">
            <mxPoint x="239.5" y="1295" as="sourcePoint" />
            <mxPoint x="-70" y="1384.6" as="targetPoint" />
          </mxGeometry>
        </mxCell>
        <mxCell id="6D0cX5ulEbAhDJw4pdyL-12" value="&amp;lt;&amp;lt;extend&amp;gt;&amp;gt;" style="html=1;verticalAlign=bottom;labelBackgroundColor=none;endArrow=open;endFill=0;dashed=1;rounded=0;strokeColor=#000000;fontColor=default;exitX=0.5;exitY=1;exitDx=0;exitDy=0;" parent="1" source="UEbt48Vx01n2Dc3In6SP-66" target="UEbt48Vx01n2Dc3In6SP-65" edge="1">
          <mxGeometry width="160" relative="1" as="geometry">
            <mxPoint x="350" y="650" as="sourcePoint" />
            <mxPoint x="410" y="700" as="targetPoint" />
          </mxGeometry>
        </mxCell>
        <mxCell id="6D0cX5ulEbAhDJw4pdyL-13" value="&amp;lt;&amp;lt;extend&amp;gt;&amp;gt;" style="html=1;verticalAlign=bottom;labelBackgroundColor=none;endArrow=open;endFill=0;dashed=1;rounded=0;strokeColor=#000000;fontColor=default;entryX=0.668;entryY=0.094;entryDx=0;entryDy=0;exitX=0.384;exitY=0.879;exitDx=0;exitDy=0;exitPerimeter=0;entryPerimeter=0;" parent="1" source="UEbt48Vx01n2Dc3In6SP-64" target="UEbt48Vx01n2Dc3In6SP-65" edge="1">
          <mxGeometry width="160" relative="1" as="geometry">
            <mxPoint x="430" y="660" as="sourcePoint" />
            <mxPoint x="420" y="690" as="targetPoint" />
          </mxGeometry>
        </mxCell>
        <mxCell id="6D0cX5ulEbAhDJw4pdyL-19" value="&amp;lt;&amp;lt;extend&amp;gt;&amp;gt;" style="html=1;verticalAlign=bottom;labelBackgroundColor=none;endArrow=open;endFill=0;dashed=1;rounded=0;exitX=0.05;exitY=0.732;exitDx=0;exitDy=0;strokeColor=#000000;fontColor=default;exitPerimeter=0;entryX=0.993;entryY=0.459;entryDx=0;entryDy=0;entryPerimeter=0;" parent="1" source="UEbt48Vx01n2Dc3In6SP-23" target="UEbt48Vx01n2Dc3In6SP-24" edge="1">
          <mxGeometry x="-0.0027" width="160" relative="1" as="geometry">
            <mxPoint x="519.5" y="670" as="sourcePoint" />
            <mxPoint x="894" y="924" as="targetPoint" />
            <mxPoint as="offset" />
          </mxGeometry>
        </mxCell>
        <mxCell id="6D0cX5ulEbAhDJw4pdyL-25" value="" style="edgeStyle=none;html=1;endSize=12;endArrow=block;endFill=0;rounded=0;entryX=0.246;entryY=0.914;entryDx=0;entryDy=0;exitX=0.617;exitY=0.06;exitDx=0;exitDy=0;exitPerimeter=0;labelBackgroundColor=none;strokeColor=#000000;fontColor=default;entryPerimeter=0;" parent="1" source="UEbt48Vx01n2Dc3In6SP-60" target="UEbt48Vx01n2Dc3In6SP-55" edge="1">
          <mxGeometry width="160" relative="1" as="geometry">
            <mxPoint x="181.5" y="831" as="sourcePoint" />
            <mxPoint x="341.5" y="831" as="targetPoint" />
          </mxGeometry>
        </mxCell>
        <mxCell id="6D0cX5ulEbAhDJw4pdyL-27" value="" style="edgeStyle=none;html=1;endSize=12;endArrow=block;endFill=0;rounded=0;labelBackgroundColor=none;strokeColor=#000000;fontColor=default;exitX=0.5;exitY=0;exitDx=0;exitDy=0;entryX=0.706;entryY=0.92;entryDx=0;entryDy=0;entryPerimeter=0;" parent="1" source="UEbt48Vx01n2Dc3In6SP-63" target="UEbt48Vx01n2Dc3In6SP-55" edge="1">
          <mxGeometry width="160" relative="1" as="geometry">
            <mxPoint x="705" y="890" as="sourcePoint" />
            <mxPoint x="310.5" y="851" as="targetPoint" />
          </mxGeometry>
        </mxCell>
        <mxCell id="6D0cX5ulEbAhDJw4pdyL-28" value="" style="edgeStyle=none;html=1;endSize=12;endArrow=block;endFill=0;rounded=0;entryX=1;entryY=0.5;entryDx=0;entryDy=0;exitX=0;exitY=0.5;exitDx=0;exitDy=0;labelBackgroundColor=none;strokeColor=#000000;fontColor=default;" parent="1" source="UEbt48Vx01n2Dc3In6SP-8" target="UEbt48Vx01n2Dc3In6SP-9" edge="1">
          <mxGeometry width="160" relative="1" as="geometry">
            <mxPoint x="799.5" y="1244" as="sourcePoint" />
            <mxPoint x="928.5" y="1264" as="targetPoint" />
          </mxGeometry>
        </mxCell>
        <mxCell id="6D0cX5ulEbAhDJw4pdyL-29" value="" style="edgeStyle=none;html=1;endSize=12;endArrow=block;endFill=0;rounded=0;entryX=0.295;entryY=0.025;entryDx=0;entryDy=0;entryPerimeter=0;exitX=0.667;exitY=0.975;exitDx=0;exitDy=0;exitPerimeter=0;labelBackgroundColor=none;strokeColor=#000000;fontColor=default;" parent="1" source="UEbt48Vx01n2Dc3In6SP-7" target="UEbt48Vx01n2Dc3In6SP-9" edge="1">
          <mxGeometry width="160" relative="1" as="geometry">
            <mxPoint x="620.5" y="1004" as="sourcePoint" />
            <mxPoint x="749.5" y="1024" as="targetPoint" />
          </mxGeometry>
        </mxCell>
        <mxCell id="6D0cX5ulEbAhDJw4pdyL-30" value="" style="edgeStyle=none;html=1;endSize=12;endArrow=block;endFill=0;rounded=0;entryX=0.75;entryY=0.059;entryDx=0;entryDy=0;entryPerimeter=0;exitX=0.208;exitY=0.888;exitDx=0;exitDy=0;labelBackgroundColor=none;strokeColor=#000000;fontColor=default;exitPerimeter=0;" parent="1" source="UEbt48Vx01n2Dc3In6SP-6" target="UEbt48Vx01n2Dc3In6SP-9" edge="1">
          <mxGeometry width="160" relative="1" as="geometry">
            <mxPoint x="734.5" y="1204" as="sourcePoint" />
            <mxPoint x="863.5" y="1224" as="targetPoint" />
          </mxGeometry>
        </mxCell>
        <mxCell id="6D0cX5ulEbAhDJw4pdyL-31" value="" style="edgeStyle=none;html=1;endSize=12;endArrow=block;endFill=0;rounded=0;exitX=0.942;exitY=0.754;exitDx=0;exitDy=0;exitPerimeter=0;labelBackgroundColor=none;strokeColor=#000000;fontColor=default;entryX=0.021;entryY=0.385;entryDx=0;entryDy=0;entryPerimeter=0;" parent="1" source="UEbt48Vx01n2Dc3In6SP-10" target="UEbt48Vx01n2Dc3In6SP-9" edge="1">
          <mxGeometry width="160" relative="1" as="geometry">
            <mxPoint x="650.5" y="1194" as="sourcePoint" />
            <mxPoint x="809" y="1255" as="targetPoint" />
          </mxGeometry>
        </mxCell>
        <mxCell id="6D0cX5ulEbAhDJw4pdyL-37" value="" style="edgeStyle=none;html=1;endSize=12;endArrow=block;endFill=0;rounded=0;entryX=0.62;entryY=0.018;entryDx=0;entryDy=0;labelBackgroundColor=none;strokeColor=#000000;fontColor=default;entryPerimeter=0;" parent="1" source="UEbt48Vx01n2Dc3In6SP-29" target="UEbt48Vx01n2Dc3In6SP-28" edge="1">
          <mxGeometry width="160" relative="1" as="geometry">
            <mxPoint x="32" y="1044" as="sourcePoint" />
            <mxPoint x="161" y="1064" as="targetPoint" />
          </mxGeometry>
        </mxCell>
        <mxCell id="6D0cX5ulEbAhDJw4pdyL-40" value="" style="edgeStyle=none;html=1;endSize=12;endArrow=block;endFill=0;rounded=0;exitX=0;exitY=1;exitDx=0;exitDy=0;entryX=0.901;entryY=0.205;entryDx=0;entryDy=0;entryPerimeter=0;labelBackgroundColor=none;strokeColor=#000000;fontColor=default;" parent="1" source="UEbt48Vx01n2Dc3In6SP-31" target="UEbt48Vx01n2Dc3In6SP-28" edge="1">
          <mxGeometry width="160" relative="1" as="geometry">
            <mxPoint x="147.5" y="1131" as="sourcePoint" />
            <mxPoint x="166.5" y="1194" as="targetPoint" />
          </mxGeometry>
        </mxCell>
        <mxCell id="6D0cX5ulEbAhDJw4pdyL-41" value="" style="edgeStyle=none;html=1;endSize=12;endArrow=block;endFill=0;rounded=0;entryX=0;entryY=0;entryDx=0;entryDy=0;labelBackgroundColor=none;strokeColor=#000000;fontColor=default;" parent="1" source="UEbt48Vx01n2Dc3In6SP-32" target="UEbt48Vx01n2Dc3In6SP-28" edge="1">
          <mxGeometry width="160" relative="1" as="geometry">
            <mxPoint x="201.5" y="1132" as="sourcePoint" />
            <mxPoint x="185.5" y="1194" as="targetPoint" />
          </mxGeometry>
        </mxCell>
        <mxCell id="6D0cX5ulEbAhDJw4pdyL-42" value="" style="endArrow=classic;html=1;rounded=0;entryX=0;entryY=0.5;entryDx=0;entryDy=0;labelBackgroundColor=none;strokeColor=#000000;fontColor=default;exitX=0.5;exitY=0.5;exitDx=0;exitDy=0;exitPerimeter=0;" parent="1" source="UEbt48Vx01n2Dc3In6SP-16" target="UEbt48Vx01n2Dc3In6SP-33" edge="1">
          <mxGeometry width="50" height="50" relative="1" as="geometry">
            <mxPoint x="71" y="935.5" as="sourcePoint" />
            <mxPoint x="242" y="424.5" as="targetPoint" />
          </mxGeometry>
        </mxCell>
        <mxCell id="6D0cX5ulEbAhDJw4pdyL-43" value="" style="endArrow=classic;html=1;rounded=0;entryX=0;entryY=0.5;entryDx=0;entryDy=0;labelBackgroundColor=none;strokeColor=#000000;fontColor=default;exitX=0.5;exitY=0.5;exitDx=0;exitDy=0;exitPerimeter=0;" parent="1" source="UEbt48Vx01n2Dc3In6SP-17" target="UEbt48Vx01n2Dc3In6SP-33" edge="1">
          <mxGeometry width="50" height="50" relative="1" as="geometry">
            <mxPoint x="29.5" y="510" as="sourcePoint" />
            <mxPoint x="369.5" y="511" as="targetPoint" />
          </mxGeometry>
        </mxCell>
        <mxCell id="6D0cX5ulEbAhDJw4pdyL-46" value="" style="edgeStyle=none;html=1;endSize=12;endArrow=block;endFill=0;rounded=0;labelBackgroundColor=none;strokeColor=#000000;fontColor=default;entryX=0.5;entryY=0.014;entryDx=0;entryDy=0;entryPerimeter=0;" parent="1" source="UEbt48Vx01n2Dc3In6SP-47" edge="1" target="UEbt48Vx01n2Dc3In6SP-33">
          <mxGeometry width="160" relative="1" as="geometry">
            <mxPoint x="271.5" y="449" as="sourcePoint" />
            <mxPoint x="609" y="485" as="targetPoint" />
          </mxGeometry>
        </mxCell>
        <mxCell id="6D0cX5ulEbAhDJw4pdyL-47" value="" style="edgeStyle=none;html=1;endSize=12;endArrow=block;endFill=0;rounded=0;labelBackgroundColor=none;strokeColor=#000000;fontColor=default;exitX=0.313;exitY=0.937;exitDx=0;exitDy=0;entryX=1;entryY=0;entryDx=0;entryDy=0;exitPerimeter=0;" parent="1" source="UEbt48Vx01n2Dc3In6SP-46" target="UEbt48Vx01n2Dc3In6SP-33" edge="1">
          <mxGeometry width="160" relative="1" as="geometry">
            <mxPoint x="1110" y="275" as="sourcePoint" />
            <mxPoint x="680.97" y="486.91" as="targetPoint" />
          </mxGeometry>
        </mxCell>
        <mxCell id="6D0cX5ulEbAhDJw4pdyL-48" value="" style="edgeStyle=none;html=1;endSize=12;endArrow=block;endFill=0;rounded=0;labelBackgroundColor=none;strokeColor=#000000;fontColor=default;entryX=0;entryY=0;entryDx=0;entryDy=0;" parent="1" source="UEbt48Vx01n2Dc3In6SP-48" target="UEbt48Vx01n2Dc3In6SP-33" edge="1">
          <mxGeometry width="160" relative="1" as="geometry">
            <mxPoint x="344.5" y="476" as="sourcePoint" />
            <mxPoint x="359.5" y="494" as="targetPoint" />
          </mxGeometry>
        </mxCell>
        <mxCell id="6D0cX5ulEbAhDJw4pdyL-49" value="" style="edgeStyle=none;html=1;endSize=12;endArrow=block;endFill=0;rounded=0;exitX=1;exitY=0;exitDx=0;exitDy=0;labelBackgroundColor=none;strokeColor=#000000;fontColor=default;" parent="1" source="UEbt48Vx01n2Dc3In6SP-49" target="UEbt48Vx01n2Dc3In6SP-33" edge="1">
          <mxGeometry width="160" relative="1" as="geometry">
            <mxPoint x="454.5" y="479" as="sourcePoint" />
            <mxPoint x="482.5" y="489" as="targetPoint" />
          </mxGeometry>
        </mxCell>
        <mxCell id="6D0cX5ulEbAhDJw4pdyL-50" value="" style="endArrow=classic;html=1;rounded=0;labelBackgroundColor=none;strokeColor=#000000;fontColor=default;exitX=0.5;exitY=0.5;exitDx=0;exitDy=0;exitPerimeter=0;" parent="1" source="UEbt48Vx01n2Dc3In6SP-16" edge="1">
          <mxGeometry width="50" height="50" relative="1" as="geometry">
            <mxPoint x="19.5" y="500" as="sourcePoint" />
            <mxPoint x="228" y="443" as="targetPoint" />
          </mxGeometry>
        </mxCell>
        <mxCell id="6D0cX5ulEbAhDJw4pdyL-52" value="" style="endArrow=classic;html=1;rounded=0;labelBackgroundColor=none;strokeColor=#000000;fontColor=default;entryX=0.306;entryY=0.99;entryDx=0;entryDy=0;entryPerimeter=0;exitX=0.5;exitY=0.5;exitDx=0;exitDy=0;exitPerimeter=0;" parent="1" source="UEbt48Vx01n2Dc3In6SP-18" target="UEbt48Vx01n2Dc3In6SP-19" edge="1">
          <mxGeometry width="50" height="50" relative="1" as="geometry">
            <mxPoint x="20" y="860" as="sourcePoint" />
            <mxPoint x="239.5" y="480" as="targetPoint" />
          </mxGeometry>
        </mxCell>
        <mxCell id="6D0cX5ulEbAhDJw4pdyL-54" value="" style="edgeStyle=none;html=1;endSize=12;endArrow=block;endFill=0;rounded=0;exitX=0.414;exitY=0.092;exitDx=0;exitDy=0;labelBackgroundColor=none;strokeColor=#000000;fontColor=default;exitPerimeter=0;" parent="1" source="UEbt48Vx01n2Dc3In6SP-20" target="UEbt48Vx01n2Dc3In6SP-19" edge="1">
          <mxGeometry width="160" relative="1" as="geometry">
            <mxPoint x="388" y="631" as="sourcePoint" />
            <mxPoint x="359" y="620" as="targetPoint" />
          </mxGeometry>
        </mxCell>
        <mxCell id="6D0cX5ulEbAhDJw4pdyL-55" value="" style="edgeStyle=none;html=1;endSize=12;endArrow=block;endFill=0;rounded=0;exitX=0;exitY=1;exitDx=0;exitDy=0;labelBackgroundColor=none;strokeColor=#000000;fontColor=default;" parent="1" source="UEbt48Vx01n2Dc3In6SP-22" target="UEbt48Vx01n2Dc3In6SP-19" edge="1">
          <mxGeometry width="160" relative="1" as="geometry">
            <mxPoint x="449" y="635.5" as="sourcePoint" />
            <mxPoint x="359.5" y="760" as="targetPoint" />
            <Array as="points" />
          </mxGeometry>
        </mxCell>
        <mxCell id="6D0cX5ulEbAhDJw4pdyL-57" value="&amp;lt;&amp;lt;extend&amp;gt;&amp;gt;" style="html=1;verticalAlign=bottom;labelBackgroundColor=none;endArrow=open;endFill=0;dashed=1;rounded=0;exitX=0.386;exitY=0.004;exitDx=0;exitDy=0;entryX=0.613;entryY=0.966;entryDx=0;entryDy=0;strokeColor=#000000;fontColor=default;entryPerimeter=0;exitPerimeter=0;" parent="1" source="UEbt48Vx01n2Dc3In6SP-52" target="UEbt48Vx01n2Dc3In6SP-24" edge="1">
          <mxGeometry width="160" relative="1" as="geometry">
            <mxPoint x="551" y="680" as="sourcePoint" />
            <mxPoint x="506" y="664" as="targetPoint" />
          </mxGeometry>
        </mxCell>
        <mxCell id="6D0cX5ulEbAhDJw4pdyL-58" value="댓글 조회" style="ellipse;whiteSpace=wrap;html=1;labelBackgroundColor=none;fillColor=#FAE5C7;strokeColor=#000000;fontColor=#143642;" parent="1" vertex="1">
          <mxGeometry x="755" y="1020" width="70" height="40" as="geometry" />
        </mxCell>
        <mxCell id="6D0cX5ulEbAhDJw4pdyL-59" value="&amp;lt;&amp;lt;extend&amp;gt;&amp;gt;" style="html=1;verticalAlign=bottom;labelBackgroundColor=none;endArrow=open;endFill=0;dashed=1;rounded=0;exitX=0;exitY=0.5;exitDx=0;exitDy=0;entryX=0.973;entryY=0.652;entryDx=0;entryDy=0;strokeColor=#000000;fontColor=default;entryPerimeter=0;" parent="1" source="UEbt48Vx01n2Dc3In6SP-54" target="UEbt48Vx01n2Dc3In6SP-24" edge="1">
          <mxGeometry x="-0.1378" width="160" relative="1" as="geometry">
            <mxPoint x="549.5" y="719" as="sourcePoint" />
            <mxPoint x="554.5" y="660" as="targetPoint" />
            <mxPoint as="offset" />
          </mxGeometry>
        </mxCell>
        <mxCell id="6D0cX5ulEbAhDJw4pdyL-60" value="&amp;lt;&amp;lt;extend&amp;gt;&amp;gt;" style="html=1;verticalAlign=bottom;labelBackgroundColor=none;endArrow=open;endFill=0;dashed=1;rounded=0;exitX=0;exitY=0;exitDx=0;exitDy=0;entryX=1;entryY=1;entryDx=0;entryDy=0;strokeColor=#000000;fontColor=default;" parent="1" source="UEbt48Vx01n2Dc3In6SP-53" target="UEbt48Vx01n2Dc3In6SP-24" edge="1">
          <mxGeometry width="160" relative="1" as="geometry">
            <mxPoint x="569.5" y="736" as="sourcePoint" />
            <mxPoint x="510.5" y="670" as="targetPoint" />
          </mxGeometry>
        </mxCell>
        <mxCell id="6D0cX5ulEbAhDJw4pdyL-61" value="&amp;lt;&amp;lt;extend&amp;gt;&amp;gt;" style="html=1;verticalAlign=bottom;labelBackgroundColor=none;endArrow=open;endFill=0;dashed=1;rounded=0;strokeColor=#000000;fontColor=default;exitX=0.5;exitY=0;exitDx=0;exitDy=0;entryX=0.281;entryY=0.907;entryDx=0;entryDy=0;entryPerimeter=0;" parent="1" source="6D0cX5ulEbAhDJw4pdyL-58" target="UEbt48Vx01n2Dc3In6SP-24" edge="1">
          <mxGeometry width="160" relative="1" as="geometry">
            <mxPoint x="1139.5" y="960" as="sourcePoint" />
            <mxPoint x="845" y="965" as="targetPoint" />
          </mxGeometry>
        </mxCell>
        <mxCell id="6D0cX5ulEbAhDJw4pdyL-63" value="&amp;lt;&amp;lt;extend&amp;gt;&amp;gt;" style="html=1;verticalAlign=bottom;labelBackgroundColor=none;endArrow=open;endFill=0;dashed=1;rounded=0;exitX=0;exitY=1;exitDx=0;exitDy=0;strokeColor=#000000;fontColor=default;entryX=0.777;entryY=0.082;entryDx=0;entryDy=0;entryPerimeter=0;" parent="1" source="UEbt48Vx01n2Dc3In6SP-58" target="UEbt48Vx01n2Dc3In6SP-24" edge="1">
          <mxGeometry width="160" relative="1" as="geometry">
            <mxPoint x="602.5" y="733" as="sourcePoint" />
            <mxPoint x="899.5" y="760" as="targetPoint" />
          </mxGeometry>
        </mxCell>
        <mxCell id="6D0cX5ulEbAhDJw4pdyL-64" value="&amp;lt;&amp;lt;extend&amp;gt;&amp;gt;" style="html=1;verticalAlign=bottom;labelBackgroundColor=none;endArrow=open;endFill=0;dashed=1;rounded=0;exitX=0.5;exitY=1;exitDx=0;exitDy=0;entryX=0.597;entryY=0.021;entryDx=0;entryDy=0;strokeColor=#000000;fontColor=default;entryPerimeter=0;" parent="1" source="UEbt48Vx01n2Dc3In6SP-59" target="UEbt48Vx01n2Dc3In6SP-24" edge="1">
          <mxGeometry width="160" relative="1" as="geometry">
            <mxPoint x="679.5" y="630" as="sourcePoint" />
            <mxPoint x="542.5" y="654" as="targetPoint" />
          </mxGeometry>
        </mxCell>
        <mxCell id="gUdXLzQhLkX2P0Ms3YXl-28" style="edgeStyle=none;curved=1;rounded=0;orthogonalLoop=1;jettySize=auto;html=1;exitX=0.5;exitY=0.5;exitDx=0;exitDy=0;exitPerimeter=0;entryX=0.5;entryY=0;entryDx=0;entryDy=0;strokeColor=#000000;fontSize=12;fontColor=#143642;startSize=8;endSize=8;fillColor=#FAE5C7;" edge="1" parent="1" source="6D0cX5ulEbAhDJw4pdyL-93" target="gUdXLzQhLkX2P0Ms3YXl-26">
          <mxGeometry relative="1" as="geometry" />
        </mxCell>
        <mxCell id="6D0cX5ulEbAhDJw4pdyL-94" value="회원관리" style="ellipse;whiteSpace=wrap;html=1;labelBackgroundColor=none;fillColor=#FAE5C7;strokeColor=#000000;fontColor=#143642;" parent="1" vertex="1">
          <mxGeometry x="794" y="177" width="70" height="29" as="geometry" />
        </mxCell>
        <mxCell id="6D0cX5ulEbAhDJw4pdyL-95" value="공지사항&amp;nbsp;&lt;div&gt;관리&lt;/div&gt;" style="ellipse;whiteSpace=wrap;html=1;labelBackgroundColor=none;fillColor=#FAE5C7;strokeColor=#000000;fontColor=#143642;" parent="1" vertex="1">
          <mxGeometry x="109.5" y="349" width="70" height="40" as="geometry" />
        </mxCell>
        <mxCell id="6D0cX5ulEbAhDJw4pdyL-96" value="공지사항&lt;div&gt;수정&lt;/div&gt;" style="ellipse;whiteSpace=wrap;html=1;labelBackgroundColor=none;fillColor=#FAE5C7;strokeColor=#000000;fontColor=#143642;" parent="1" vertex="1">
          <mxGeometry y="309" width="70" height="40" as="geometry" />
        </mxCell>
        <mxCell id="6D0cX5ulEbAhDJw4pdyL-97" value="공지사항&amp;nbsp;&lt;div&gt;삭제&lt;/div&gt;" style="ellipse;whiteSpace=wrap;html=1;labelBackgroundColor=none;fillColor=#FAE5C7;strokeColor=#000000;fontColor=#143642;" parent="1" vertex="1">
          <mxGeometry x="60" y="255" width="70" height="40" as="geometry" />
        </mxCell>
        <mxCell id="6D0cX5ulEbAhDJw4pdyL-99" value="공지사항&lt;div&gt;등록&lt;/div&gt;" style="ellipse;whiteSpace=wrap;html=1;labelBackgroundColor=none;fillColor=#FAE5C7;strokeColor=#000000;fontColor=#143642;" parent="1" vertex="1">
          <mxGeometry x="141.5" y="255" width="70" height="40" as="geometry" />
        </mxCell>
        <mxCell id="6D0cX5ulEbAhDJw4pdyL-100" value="회원조회" style="ellipse;whiteSpace=wrap;html=1;labelBackgroundColor=none;fillColor=#FAE5C7;strokeColor=#000000;fontColor=#143642;" parent="1" vertex="1">
          <mxGeometry x="877.5" y="233" width="70" height="40" as="geometry" />
        </mxCell>
        <mxCell id="6D0cX5ulEbAhDJw4pdyL-101" value="회원 삭제" style="ellipse;whiteSpace=wrap;html=1;labelBackgroundColor=none;fillColor=#FAE5C7;strokeColor=#000000;fontColor=#143642;" parent="1" vertex="1">
          <mxGeometry x="710" y="233" width="70" height="40" as="geometry" />
        </mxCell>
        <mxCell id="6D0cX5ulEbAhDJw4pdyL-102" value="회원 차단" style="ellipse;whiteSpace=wrap;html=1;labelBackgroundColor=none;fillColor=#FAE5C7;strokeColor=#000000;fontColor=#143642;" parent="1" vertex="1">
          <mxGeometry x="794" y="253" width="70" height="40" as="geometry" />
        </mxCell>
        <mxCell id="6D0cX5ulEbAhDJw4pdyL-105" value="신고 관리" style="ellipse;whiteSpace=wrap;html=1;labelBackgroundColor=none;fillColor=#FAE5C7;strokeColor=#000000;fontColor=#143642;" parent="1" vertex="1">
          <mxGeometry x="280" y="150" width="100" height="50" as="geometry" />
        </mxCell>
        <mxCell id="6D0cX5ulEbAhDJw4pdyL-106" value="신고 접수" style="ellipse;whiteSpace=wrap;html=1;labelBackgroundColor=none;fillColor=#FAE5C7;strokeColor=#000000;fontColor=#143642;" parent="1" vertex="1">
          <mxGeometry x="164" y="177" width="70" height="40" as="geometry" />
        </mxCell>
        <mxCell id="6D0cX5ulEbAhDJw4pdyL-107" value="" style="endArrow=classic;html=1;rounded=0;exitX=0.5;exitY=0.5;exitDx=0;exitDy=0;exitPerimeter=0;entryX=1;entryY=0.5;entryDx=0;entryDy=0;labelBackgroundColor=none;strokeColor=#000000;fontColor=default;" parent="1" source="6D0cX5ulEbAhDJw4pdyL-93" target="6D0cX5ulEbAhDJw4pdyL-105" edge="1">
          <mxGeometry width="50" height="50" relative="1" as="geometry">
            <mxPoint x="379.5" y="190" as="sourcePoint" />
            <mxPoint x="319.5" y="260" as="targetPoint" />
          </mxGeometry>
        </mxCell>
        <mxCell id="6D0cX5ulEbAhDJw4pdyL-108" value="" style="endArrow=classic;html=1;rounded=0;labelBackgroundColor=none;strokeColor=#000000;fontColor=default;exitX=0.5;exitY=0.5;exitDx=0;exitDy=0;exitPerimeter=0;" parent="1" source="6D0cX5ulEbAhDJw4pdyL-93" target="6D0cX5ulEbAhDJw4pdyL-95" edge="1">
          <mxGeometry width="50" height="50" relative="1" as="geometry">
            <mxPoint x="510" y="150" as="sourcePoint" />
            <mxPoint x="519.5" y="246" as="targetPoint" />
          </mxGeometry>
        </mxCell>
        <mxCell id="6D0cX5ulEbAhDJw4pdyL-109" value="" style="endArrow=classic;html=1;rounded=0;entryX=0.032;entryY=0.291;entryDx=0;entryDy=0;exitX=0.5;exitY=0.5;exitDx=0;exitDy=0;exitPerimeter=0;labelBackgroundColor=none;strokeColor=#000000;fontColor=default;entryPerimeter=0;" parent="1" source="6D0cX5ulEbAhDJw4pdyL-93" target="6D0cX5ulEbAhDJw4pdyL-94" edge="1">
          <mxGeometry width="50" height="50" relative="1" as="geometry">
            <mxPoint x="369.5" y="130" as="sourcePoint" />
            <mxPoint x="299.5" y="190" as="targetPoint" />
          </mxGeometry>
        </mxCell>
        <mxCell id="6D0cX5ulEbAhDJw4pdyL-110" value="" style="endArrow=classic;html=1;rounded=0;entryX=0.5;entryY=0;entryDx=0;entryDy=0;exitX=0.5;exitY=0.5;exitDx=0;exitDy=0;exitPerimeter=0;labelBackgroundColor=none;strokeColor=#000000;fontColor=default;" parent="1" source="6D0cX5ulEbAhDJw4pdyL-93" target="UEbt48Vx01n2Dc3In6SP-22" edge="1">
          <mxGeometry width="50" height="50" relative="1" as="geometry">
            <mxPoint x="500.5" y="155" as="sourcePoint" />
            <mxPoint x="592.828" y="213.60000000000002" as="targetPoint" />
          </mxGeometry>
        </mxCell>
        <mxCell id="6D0cX5ulEbAhDJw4pdyL-112" value="" style="edgeStyle=none;html=1;endSize=12;endArrow=block;endFill=0;rounded=0;exitX=0.5;exitY=0;exitDx=0;exitDy=0;entryX=0.5;entryY=1;entryDx=0;entryDy=0;labelBackgroundColor=none;strokeColor=#000000;fontColor=default;" parent="1" source="6D0cX5ulEbAhDJw4pdyL-102" target="6D0cX5ulEbAhDJw4pdyL-94" edge="1">
          <mxGeometry width="160" relative="1" as="geometry">
            <mxPoint x="301" y="308.5" as="sourcePoint" />
            <mxPoint x="321" y="248.5" as="targetPoint" />
          </mxGeometry>
        </mxCell>
        <mxCell id="6D0cX5ulEbAhDJw4pdyL-113" value="" style="edgeStyle=none;html=1;endSize=12;endArrow=block;endFill=0;rounded=0;entryX=0.06;entryY=0.707;entryDx=0;entryDy=0;labelBackgroundColor=none;strokeColor=#000000;fontColor=default;entryPerimeter=0;exitX=0.74;exitY=0.071;exitDx=0;exitDy=0;exitPerimeter=0;" parent="1" source="6D0cX5ulEbAhDJw4pdyL-101" target="6D0cX5ulEbAhDJw4pdyL-94" edge="1">
          <mxGeometry width="160" relative="1" as="geometry">
            <mxPoint x="763" y="235" as="sourcePoint" />
            <mxPoint x="360.5" y="242.5" as="targetPoint" />
          </mxGeometry>
        </mxCell>
        <mxCell id="6D0cX5ulEbAhDJw4pdyL-114" value="" style="edgeStyle=none;html=1;endSize=12;endArrow=block;endFill=0;rounded=0;exitX=0.268;exitY=0.053;exitDx=0;exitDy=0;entryX=0.928;entryY=0.765;entryDx=0;entryDy=0;labelBackgroundColor=none;strokeColor=#000000;fontColor=default;exitPerimeter=0;entryPerimeter=0;" parent="1" source="6D0cX5ulEbAhDJw4pdyL-100" target="6D0cX5ulEbAhDJw4pdyL-94" edge="1">
          <mxGeometry width="160" relative="1" as="geometry">
            <mxPoint x="425" y="270.5" as="sourcePoint" />
            <mxPoint x="375" y="230.5" as="targetPoint" />
          </mxGeometry>
        </mxCell>
        <mxCell id="6D0cX5ulEbAhDJw4pdyL-116" value="" style="edgeStyle=none;html=1;endSize=12;endArrow=block;endFill=0;rounded=0;entryX=0.5;entryY=0;entryDx=0;entryDy=0;exitX=0.294;exitY=1.054;exitDx=0;exitDy=0;exitPerimeter=0;labelBackgroundColor=none;strokeColor=#000000;fontColor=default;" parent="1" source="6D0cX5ulEbAhDJw4pdyL-99" target="6D0cX5ulEbAhDJw4pdyL-95" edge="1">
          <mxGeometry width="160" relative="1" as="geometry">
            <mxPoint x="528.5" y="339" as="sourcePoint" />
            <mxPoint x="588.5" y="309" as="targetPoint" />
          </mxGeometry>
        </mxCell>
        <mxCell id="6D0cX5ulEbAhDJw4pdyL-117" value="" style="edgeStyle=none;html=1;endSize=12;endArrow=block;endFill=0;rounded=0;exitX=0.5;exitY=1;exitDx=0;exitDy=0;labelBackgroundColor=none;strokeColor=#000000;fontColor=default;" parent="1" source="6D0cX5ulEbAhDJw4pdyL-97" target="6D0cX5ulEbAhDJw4pdyL-95" edge="1">
          <mxGeometry width="160" relative="1" as="geometry">
            <mxPoint x="569.5" y="345" as="sourcePoint" />
            <mxPoint x="568.5" y="299" as="targetPoint" />
          </mxGeometry>
        </mxCell>
        <mxCell id="6D0cX5ulEbAhDJw4pdyL-118" value="" style="edgeStyle=none;html=1;endSize=12;endArrow=block;endFill=0;rounded=0;exitX=1;exitY=0.5;exitDx=0;exitDy=0;labelBackgroundColor=none;strokeColor=#000000;fontColor=default;" parent="1" source="6D0cX5ulEbAhDJw4pdyL-96" edge="1">
          <mxGeometry width="160" relative="1" as="geometry">
            <mxPoint x="99.5" y="250" as="sourcePoint" />
            <mxPoint x="110" y="360" as="targetPoint" />
          </mxGeometry>
        </mxCell>
        <mxCell id="6D0cX5ulEbAhDJw4pdyL-120" value="" style="edgeStyle=none;html=1;endSize=12;endArrow=block;endFill=0;rounded=0;labelBackgroundColor=none;strokeColor=#000000;fontColor=default;entryX=0;entryY=0.58;entryDx=0;entryDy=0;entryPerimeter=0;" parent="1" source="6D0cX5ulEbAhDJw4pdyL-106" edge="1" target="6D0cX5ulEbAhDJw4pdyL-105">
          <mxGeometry width="160" relative="1" as="geometry">
            <mxPoint x="169.5" y="105" as="sourcePoint" />
            <mxPoint x="290" y="180" as="targetPoint" />
          </mxGeometry>
        </mxCell>
        <mxCell id="rLiiOecZvkLMFVyqeeFI-15" value="" style="endArrow=classic;html=1;rounded=0;exitX=0.343;exitY=0.95;exitDx=0;exitDy=0;exitPerimeter=0;labelBackgroundColor=none;strokeColor=#000000;fontColor=default;entryX=0.566;entryY=0.014;entryDx=0;entryDy=0;entryPerimeter=0;" parent="1" source="6D0cX5ulEbAhDJw4pdyL-95" target="rLiiOecZvkLMFVyqeeFI-14" edge="1">
          <mxGeometry width="50" height="50" relative="1" as="geometry">
            <mxPoint x="449.5" y="480" as="sourcePoint" />
            <mxPoint x="220" y="640" as="targetPoint" />
          </mxGeometry>
        </mxCell>
        <mxCell id="rLiiOecZvkLMFVyqeeFI-21" value="" style="endArrow=classic;html=1;rounded=0;labelBackgroundColor=none;strokeColor=#000000;fontColor=default;exitX=0.5;exitY=0.5;exitDx=0;exitDy=0;exitPerimeter=0;" parent="1" source="6D0cX5ulEbAhDJw4pdyL-93" target="UEbt48Vx01n2Dc3In6SP-61" edge="1">
          <mxGeometry width="50" height="50" relative="1" as="geometry">
            <mxPoint x="509.5" y="950" as="sourcePoint" />
            <mxPoint x="559.5" y="900" as="targetPoint" />
          </mxGeometry>
        </mxCell>
        <mxCell id="rLiiOecZvkLMFVyqeeFI-22" value="" style="endArrow=classic;html=1;rounded=0;labelBackgroundColor=none;strokeColor=#000000;fontColor=default;" parent="1" target="UEbt48Vx01n2Dc3In6SP-61" edge="1">
          <mxGeometry width="50" height="50" relative="1" as="geometry">
            <mxPoint x="5" y="860" as="sourcePoint" />
            <mxPoint x="599.5" y="550" as="targetPoint" />
          </mxGeometry>
        </mxCell>
        <mxCell id="rLiiOecZvkLMFVyqeeFI-24" value="" style="edgeStyle=none;html=1;endSize=12;endArrow=block;endFill=0;rounded=0;exitX=0.5;exitY=1;exitDx=0;exitDy=0;labelBackgroundColor=none;strokeColor=#000000;fontColor=default;" parent="1" source="UEbt48Vx01n2Dc3In6SP-21" target="UEbt48Vx01n2Dc3In6SP-19" edge="1">
          <mxGeometry width="160" relative="1" as="geometry">
            <mxPoint x="359.5" y="604" as="sourcePoint" />
            <mxPoint x="500.5" y="761" as="targetPoint" />
          </mxGeometry>
        </mxCell>
        <mxCell id="UEbt48Vx01n2Dc3In6SP-61" value="상담 조회" style="ellipse;whiteSpace=wrap;html=1;labelBackgroundColor=none;fillColor=#FAE5C7;strokeColor=#000000;fontColor=#143642;" parent="1" vertex="1">
          <mxGeometry x="729.5" y="621" width="64.5" height="64" as="geometry" />
        </mxCell>
        <mxCell id="rLiiOecZvkLMFVyqeeFI-27" value="" style="endArrow=classic;html=1;rounded=0;entryX=1;entryY=1;entryDx=0;entryDy=0;exitX=0.5;exitY=0.5;exitDx=0;exitDy=0;exitPerimeter=0;labelBackgroundColor=none;strokeColor=#000000;fontColor=default;" parent="1" source="ycFsrCb-pIJ5EY6Nro4r-18" target="rLiiOecZvkLMFVyqeeFI-14" edge="1">
          <mxGeometry width="50" height="50" relative="1" as="geometry">
            <mxPoint x="769.5" y="1170" as="sourcePoint" />
            <mxPoint x="819.5" y="1120" as="targetPoint" />
          </mxGeometry>
        </mxCell>
        <mxCell id="rLiiOecZvkLMFVyqeeFI-28" value="" style="endArrow=classic;html=1;rounded=0;entryX=0;entryY=0.5;entryDx=0;entryDy=0;labelBackgroundColor=none;strokeColor=#000000;fontColor=default;exitX=0.5;exitY=0.5;exitDx=0;exitDy=0;exitPerimeter=0;" parent="1" source="UEbt48Vx01n2Dc3In6SP-17" target="rLiiOecZvkLMFVyqeeFI-14" edge="1">
          <mxGeometry width="50" height="50" relative="1" as="geometry">
            <mxPoint x="19.5" y="681" as="sourcePoint" />
            <mxPoint x="757.5" y="736" as="targetPoint" />
          </mxGeometry>
        </mxCell>
        <mxCell id="UEbt48Vx01n2Dc3In6SP-20" value="게시글 작성" style="ellipse;whiteSpace=wrap;html=1;labelBackgroundColor=none;fillColor=#FAE5C7;strokeColor=#000000;fontColor=#143642;" parent="1" vertex="1">
          <mxGeometry x="264" y="521" width="70" height="30" as="geometry" />
        </mxCell>
        <mxCell id="rLiiOecZvkLMFVyqeeFI-31" value="" style="edgeStyle=none;html=1;endSize=12;endArrow=block;endFill=0;rounded=0;exitX=0.607;exitY=0.069;exitDx=0;exitDy=0;entryX=0.059;entryY=0.737;entryDx=0;entryDy=0;entryPerimeter=0;labelBackgroundColor=none;strokeColor=#000000;fontColor=default;exitPerimeter=0;" parent="1" source="UEbt48Vx01n2Dc3In6SP-30" target="UEbt48Vx01n2Dc3In6SP-28" edge="1">
          <mxGeometry width="160" relative="1" as="geometry">
            <mxPoint x="157.5" y="802" as="sourcePoint" />
            <mxPoint x="484.5" y="730" as="targetPoint" />
          </mxGeometry>
        </mxCell>
        <mxCell id="rLiiOecZvkLMFVyqeeFI-32" value="" style="endArrow=classic;html=1;rounded=0;entryX=0.5;entryY=1;entryDx=0;entryDy=0;labelBackgroundColor=none;strokeColor=#000000;fontColor=default;exitX=0.5;exitY=0.5;exitDx=0;exitDy=0;exitPerimeter=0;" parent="1" target="UEbt48Vx01n2Dc3In6SP-30" edge="1" source="ycFsrCb-pIJ5EY6Nro4r-18">
          <mxGeometry width="50" height="50" relative="1" as="geometry">
            <mxPoint x="409.5" y="1472.285679408482" as="sourcePoint" />
            <mxPoint x="659.5" y="850" as="targetPoint" />
          </mxGeometry>
        </mxCell>
        <mxCell id="rLiiOecZvkLMFVyqeeFI-33" value="" style="endArrow=classic;html=1;rounded=0;entryX=0.26;entryY=0.045;entryDx=0;entryDy=0;entryPerimeter=0;labelBackgroundColor=none;strokeColor=#000000;fontColor=default;exitX=0.5;exitY=0.5;exitDx=0;exitDy=0;exitPerimeter=0;" parent="1" source="UEbt48Vx01n2Dc3In6SP-16" target="rLiiOecZvkLMFVyqeeFI-14" edge="1">
          <mxGeometry width="50" height="50" relative="1" as="geometry">
            <mxPoint x="20" y="500" as="sourcePoint" />
            <mxPoint x="419.5" y="500" as="targetPoint" />
          </mxGeometry>
        </mxCell>
        <mxCell id="QmAGlVyswgRllLXccgpK-1" value="" style="endArrow=classic;html=1;rounded=0;labelBackgroundColor=none;strokeColor=#000000;fontColor=default;exitX=0.5;exitY=0.5;exitDx=0;exitDy=0;exitPerimeter=0;entryX=0;entryY=1;entryDx=0;entryDy=0;" parent="1" target="UEbt48Vx01n2Dc3In6SP-24" edge="1" source="ycFsrCb-pIJ5EY6Nro4r-18">
          <mxGeometry width="50" height="50" relative="1" as="geometry">
            <mxPoint x="409.5" y="1480" as="sourcePoint" />
            <mxPoint x="674.5" y="802" as="targetPoint" />
          </mxGeometry>
        </mxCell>
        <mxCell id="QmAGlVyswgRllLXccgpK-16" value="" style="endArrow=classic;html=1;rounded=0;labelBackgroundColor=none;strokeColor=#000000;fontColor=default;exitX=0.5;exitY=0.5;exitDx=0;exitDy=0;exitPerimeter=0;" parent="1" source="UEbt48Vx01n2Dc3In6SP-18" target="UEbt48Vx01n2Dc3In6SP-65" edge="1">
          <mxGeometry width="50" height="50" relative="1" as="geometry">
            <mxPoint x="20" y="852" as="sourcePoint" />
            <mxPoint x="590" y="560" as="targetPoint" />
          </mxGeometry>
        </mxCell>
        <mxCell id="UEbt48Vx01n2Dc3In6SP-65" value="대댓글 작성" style="ellipse;whiteSpace=wrap;html=1;labelBackgroundColor=none;fillColor=#FAE5C7;strokeColor=#000000;fontColor=#143642;" parent="1" vertex="1">
          <mxGeometry x="300" y="760" width="70" height="40" as="geometry" />
        </mxCell>
        <mxCell id="gUdXLzQhLkX2P0Ms3YXl-49" style="edgeStyle=none;curved=1;rounded=0;orthogonalLoop=1;jettySize=auto;html=1;exitX=0.5;exitY=0.5;exitDx=0;exitDy=0;exitPerimeter=0;strokeColor=#000000;fontSize=12;fontColor=#143642;startSize=8;endSize=8;fillColor=#FAE5C7;" edge="1" parent="1" source="ycFsrCb-pIJ5EY6Nro4r-18" target="UEbt48Vx01n2Dc3In6SP-55">
          <mxGeometry relative="1" as="geometry" />
        </mxCell>
        <mxCell id="gUdXLzQhLkX2P0Ms3YXl-92" style="edgeStyle=none;curved=1;rounded=0;orthogonalLoop=1;jettySize=auto;html=1;exitX=0.5;exitY=0.5;exitDx=0;exitDy=0;exitPerimeter=0;entryX=0.5;entryY=1;entryDx=0;entryDy=0;strokeColor=#000000;fontSize=12;fontColor=#143642;startSize=8;endSize=8;fillColor=#FAE5C7;" edge="1" parent="1" source="ycFsrCb-pIJ5EY6Nro4r-18" target="gUdXLzQhLkX2P0Ms3YXl-88">
          <mxGeometry relative="1" as="geometry" />
        </mxCell>
        <mxCell id="ycFsrCb-pIJ5EY6Nro4r-18" value="사용자" style="shape=umlActor;html=1;verticalLabelPosition=bottom;verticalAlign=top;align=center;labelBackgroundColor=none;fillColor=#FAE5C7;strokeColor=#000000;fontColor=#143642;" parent="1" vertex="1">
          <mxGeometry x="393.5" y="1410" width="30" height="60" as="geometry" />
        </mxCell>
        <mxCell id="Cf7tjXocuC5NtAsNGylG-5" value="" style="edgeStyle=none;html=1;endSize=12;endArrow=block;endFill=0;rounded=0;labelBackgroundColor=none;strokeColor=#000000;fontColor=default;entryX=0;entryY=0.5;entryDx=0;entryDy=0;" parent="1" target="UEbt48Vx01n2Dc3In6SP-28" edge="1">
          <mxGeometry width="160" relative="1" as="geometry">
            <mxPoint x="370" y="780" as="sourcePoint" />
            <mxPoint x="410" y="730" as="targetPoint" />
          </mxGeometry>
        </mxCell>
        <mxCell id="Cf7tjXocuC5NtAsNGylG-9" value="" style="endArrow=classic;html=1;rounded=0;labelBackgroundColor=none;strokeColor=#000000;fontColor=default;entryX=0;entryY=0.5;entryDx=0;entryDy=0;exitX=0.5;exitY=0.5;exitDx=0;exitDy=0;exitPerimeter=0;" parent="1" source="UEbt48Vx01n2Dc3In6SP-17" target="UEbt48Vx01n2Dc3In6SP-65" edge="1">
          <mxGeometry width="50" height="50" relative="1" as="geometry">
            <mxPoint x="20" y="680" as="sourcePoint" />
            <mxPoint x="313" y="798" as="targetPoint" />
          </mxGeometry>
        </mxCell>
        <mxCell id="Cf7tjXocuC5NtAsNGylG-10" value="" style="endArrow=classic;html=1;rounded=0;labelBackgroundColor=none;strokeColor=#000000;fontColor=default;entryX=0;entryY=0.5;entryDx=0;entryDy=0;exitX=0.5;exitY=0.5;exitDx=0;exitDy=0;exitPerimeter=0;" parent="1" source="UEbt48Vx01n2Dc3In6SP-16" target="UEbt48Vx01n2Dc3In6SP-65" edge="1">
          <mxGeometry width="50" height="50" relative="1" as="geometry">
            <mxPoint x="20" y="500" as="sourcePoint" />
            <mxPoint x="323" y="808" as="targetPoint" />
          </mxGeometry>
        </mxCell>
        <mxCell id="rLiiOecZvkLMFVyqeeFI-14" value="공지사항&lt;div&gt;조회&lt;/div&gt;" style="ellipse;whiteSpace=wrap;html=1;labelBackgroundColor=none;fillColor=#FAE5C7;strokeColor=#000000;fontColor=#143642;" parent="1" vertex="1">
          <mxGeometry x="167" y="645" width="102.5" height="85" as="geometry" />
        </mxCell>
        <mxCell id="UEbt48Vx01n2Dc3In6SP-32" value="후기 작성" style="ellipse;whiteSpace=wrap;html=1;labelBackgroundColor=none;fillColor=#FAE5C7;strokeColor=#000000;fontColor=#143642;" parent="1" vertex="1">
          <mxGeometry x="401" y="692.5" width="60" height="50" as="geometry" />
        </mxCell>
        <mxCell id="UEbt48Vx01n2Dc3In6SP-29" value="후기 수정" style="ellipse;whiteSpace=wrap;html=1;labelBackgroundColor=none;fillColor=#FAE5C7;strokeColor=#000000;fontColor=#143642;" parent="1" vertex="1">
          <mxGeometry x="507.5" y="667.5" width="70" height="40" as="geometry" />
        </mxCell>
        <mxCell id="Cf7tjXocuC5NtAsNGylG-11" value="" style="edgeStyle=none;html=1;endSize=12;endArrow=block;endFill=0;rounded=0;labelBackgroundColor=none;strokeColor=#000000;fontColor=default;entryX=0.982;entryY=0.337;entryDx=0;entryDy=0;entryPerimeter=0;" parent="1" source="UEbt48Vx01n2Dc3In6SP-9" edge="1" target="UEbt48Vx01n2Dc3In6SP-1">
          <mxGeometry width="160" relative="1" as="geometry">
            <mxPoint x="910" y="1270" as="sourcePoint" />
            <mxPoint x="670" y="1340" as="targetPoint" />
            <Array as="points" />
          </mxGeometry>
        </mxCell>
        <mxCell id="UEbt48Vx01n2Dc3In6SP-26" value="요구사항 설문지" style="ellipse;whiteSpace=wrap;html=1;labelBackgroundColor=none;fillColor=#FAE5C7;strokeColor=#000000;fontColor=#143642;" parent="1" vertex="1">
          <mxGeometry x="187.5" y="992" width="132" height="80" as="geometry" />
        </mxCell>
        <mxCell id="Cf7tjXocuC5NtAsNGylG-16" value="설문지 수정" style="ellipse;whiteSpace=wrap;html=1;labelBackgroundColor=none;fillColor=#FAE5C7;strokeColor=#000000;fontColor=#143642;" parent="1" vertex="1">
          <mxGeometry x="71.5" y="1020" width="70" height="40" as="geometry" />
        </mxCell>
        <mxCell id="Cf7tjXocuC5NtAsNGylG-17" value="설문지 조회" style="ellipse;whiteSpace=wrap;html=1;labelBackgroundColor=none;fillColor=#FAE5C7;strokeColor=#000000;fontColor=#143642;rotation=0;" parent="1" vertex="1">
          <mxGeometry x="119" y="947.5" width="70" height="40" as="geometry" />
        </mxCell>
        <mxCell id="Cf7tjXocuC5NtAsNGylG-21" value="" style="edgeStyle=none;html=1;endSize=12;endArrow=block;endFill=0;rounded=0;labelBackgroundColor=none;strokeColor=#000000;fontColor=default;entryX=0.024;entryY=0.655;entryDx=0;entryDy=0;entryPerimeter=0;exitX=1;exitY=0.5;exitDx=0;exitDy=0;" parent="1" source="Cf7tjXocuC5NtAsNGylG-16" target="UEbt48Vx01n2Dc3In6SP-26" edge="1">
          <mxGeometry width="160" relative="1" as="geometry">
            <mxPoint x="384" y="940" as="sourcePoint" />
            <mxPoint x="305.5" y="1054" as="targetPoint" />
            <Array as="points" />
          </mxGeometry>
        </mxCell>
        <mxCell id="Cf7tjXocuC5NtAsNGylG-22" value="" style="edgeStyle=none;html=1;endSize=12;endArrow=block;endFill=0;rounded=0;labelBackgroundColor=none;strokeColor=#000000;fontColor=default;exitX=1;exitY=1;exitDx=0;exitDy=0;entryX=0.068;entryY=0.198;entryDx=0;entryDy=0;entryPerimeter=0;" parent="1" source="Cf7tjXocuC5NtAsNGylG-17" target="UEbt48Vx01n2Dc3In6SP-26" edge="1">
          <mxGeometry width="160" relative="1" as="geometry">
            <mxPoint x="264" y="970" as="sourcePoint" />
            <mxPoint x="314" y="990" as="targetPoint" />
            <Array as="points" />
          </mxGeometry>
        </mxCell>
        <mxCell id="Cf7tjXocuC5NtAsNGylG-25" value="설문지 작성" style="ellipse;whiteSpace=wrap;html=1;labelBackgroundColor=none;fillColor=#FAE5C7;strokeColor=#000000;fontColor=#143642;" parent="1" vertex="1">
          <mxGeometry x="101" y="1072" width="70" height="40" as="geometry" />
        </mxCell>
        <mxCell id="Cf7tjXocuC5NtAsNGylG-26" value="" style="edgeStyle=none;html=1;endSize=12;endArrow=block;endFill=0;rounded=0;labelBackgroundColor=none;strokeColor=#000000;fontColor=default;entryX=0.085;entryY=0.784;entryDx=0;entryDy=0;entryPerimeter=0;exitX=1;exitY=0;exitDx=0;exitDy=0;" parent="1" source="Cf7tjXocuC5NtAsNGylG-25" target="UEbt48Vx01n2Dc3In6SP-26" edge="1">
          <mxGeometry width="160" relative="1" as="geometry">
            <mxPoint x="263" y="1040" as="sourcePoint" />
            <mxPoint x="312" y="1032" as="targetPoint" />
            <Array as="points" />
          </mxGeometry>
        </mxCell>
        <mxCell id="UEbt48Vx01n2Dc3In6SP-1" value="로그인" style="ellipse;whiteSpace=wrap;html=1;labelBackgroundColor=none;fillColor=#FAE5C7;strokeColor=#000000;fontColor=#143642;" parent="1" vertex="1">
          <mxGeometry x="569.5" y="1320" width="100" height="50" as="geometry" />
        </mxCell>
        <mxCell id="UEbt48Vx01n2Dc3In6SP-5" value="아이디 찾기" style="ellipse;whiteSpace=wrap;html=1;labelBackgroundColor=none;fillColor=#FAE5C7;strokeColor=#000000;fontColor=#143642;" parent="1" vertex="1">
          <mxGeometry x="485" y="1280" width="70" height="40" as="geometry" />
        </mxCell>
        <mxCell id="6D0cX5ulEbAhDJw4pdyL-20" value="&amp;lt;&amp;lt;extend&amp;gt;&amp;gt;" style="html=1;verticalAlign=bottom;labelBackgroundColor=none;endArrow=open;endFill=0;dashed=1;rounded=0;exitX=0.417;exitY=0.909;exitDx=0;exitDy=0;entryX=0.449;entryY=0.006;entryDx=0;entryDy=0;strokeColor=#000000;fontColor=default;entryPerimeter=0;exitPerimeter=0;" parent="1" source="UEbt48Vx01n2Dc3In6SP-4" target="UEbt48Vx01n2Dc3In6SP-1" edge="1">
          <mxGeometry x="0.2098" y="-1" width="160" relative="1" as="geometry">
            <mxPoint x="621.5" y="1134" as="sourcePoint" />
            <mxPoint x="629.5" y="1164" as="targetPoint" />
            <mxPoint as="offset" />
          </mxGeometry>
        </mxCell>
        <mxCell id="6D0cX5ulEbAhDJw4pdyL-32" value="&amp;lt;&amp;lt;extend&amp;gt;&amp;gt;" style="html=1;verticalAlign=bottom;labelBackgroundColor=none;endArrow=open;endFill=0;dashed=1;rounded=0;entryX=0.106;entryY=0.171;entryDx=0;entryDy=0;strokeColor=#000000;fontColor=default;entryPerimeter=0;" parent="1" target="UEbt48Vx01n2Dc3In6SP-1" edge="1" source="UEbt48Vx01n2Dc3In6SP-5">
          <mxGeometry x="0.0112" y="-9" width="160" relative="1" as="geometry">
            <mxPoint x="637.5" y="1270" as="sourcePoint" />
            <mxPoint x="656.5" y="1124" as="targetPoint" />
            <mxPoint as="offset" />
          </mxGeometry>
        </mxCell>
        <mxCell id="UEbt48Vx01n2Dc3In6SP-46" value="업체 정보&lt;div&gt;작성&lt;/div&gt;" style="ellipse;whiteSpace=wrap;html=1;labelBackgroundColor=none;fillColor=#FAE5C7;strokeColor=#000000;fontColor=#143642;" parent="1" vertex="1">
          <mxGeometry x="685" y="405" width="70" height="40" as="geometry" />
        </mxCell>
        <mxCell id="gUdXLzQhLkX2P0Ms3YXl-10" value="게시글&lt;div&gt;좋아요 개수&lt;/div&gt;" style="ellipse;whiteSpace=wrap;html=1;labelBackgroundColor=none;fillColor=#FAE5C7;strokeColor=#000000;fontColor=#143642;" vertex="1" parent="1">
          <mxGeometry x="941" y="680" width="70" height="60" as="geometry" />
        </mxCell>
        <mxCell id="gUdXLzQhLkX2P0Ms3YXl-13" value="&amp;lt;&amp;lt;extend&amp;gt;&amp;gt;" style="html=1;verticalAlign=bottom;labelBackgroundColor=none;endArrow=open;endFill=0;dashed=1;rounded=0;entryX=0.3;entryY=0.065;entryDx=0;entryDy=0;strokeColor=#000000;fontColor=default;entryPerimeter=0;" edge="1" parent="1" source="gUdXLzQhLkX2P0Ms3YXl-12" target="UEbt48Vx01n2Dc3In6SP-24">
          <mxGeometry x="0.5742" y="-1" width="160" relative="1" as="geometry">
            <mxPoint x="855" y="848" as="sourcePoint" />
            <mxPoint x="852" y="900" as="targetPoint" />
            <mxPoint as="offset" />
          </mxGeometry>
        </mxCell>
        <mxCell id="gUdXLzQhLkX2P0Ms3YXl-14" value="" style="edgeStyle=none;html=1;endSize=12;endArrow=block;endFill=0;rounded=0;exitX=0.277;exitY=0.949;exitDx=0;exitDy=0;entryX=0.636;entryY=0.008;entryDx=0;entryDy=0;entryPerimeter=0;labelBackgroundColor=none;strokeColor=#000000;fontColor=default;exitPerimeter=0;" edge="1" parent="1" source="gUdXLzQhLkX2P0Ms3YXl-10" target="UEbt48Vx01n2Dc3In6SP-58">
          <mxGeometry width="160" relative="1" as="geometry">
            <mxPoint x="960" y="734.75" as="sourcePoint" />
            <mxPoint x="943" y="783.75" as="targetPoint" />
          </mxGeometry>
        </mxCell>
        <mxCell id="gUdXLzQhLkX2P0Ms3YXl-15" value="좋아요 모아보기" style="ellipse;whiteSpace=wrap;html=1;labelBackgroundColor=none;fillColor=#FAE5C7;strokeColor=#000000;fontColor=#143642;" vertex="1" parent="1">
          <mxGeometry x="751" y="1300" width="87" height="40" as="geometry" />
        </mxCell>
        <mxCell id="gUdXLzQhLkX2P0Ms3YXl-16" value="" style="edgeStyle=none;html=1;endSize=12;endArrow=block;endFill=0;rounded=0;entryX=0.199;entryY=0.893;entryDx=0;entryDy=0;labelBackgroundColor=none;strokeColor=#000000;fontColor=default;entryPerimeter=0;" edge="1" parent="1" source="gUdXLzQhLkX2P0Ms3YXl-15" target="UEbt48Vx01n2Dc3In6SP-9">
          <mxGeometry width="160" relative="1" as="geometry">
            <mxPoint x="949" y="1310" as="sourcePoint" />
            <mxPoint x="965.5" y="1304" as="targetPoint" />
          </mxGeometry>
        </mxCell>
        <mxCell id="gUdXLzQhLkX2P0Ms3YXl-19" value="즐겨찾기 모아보기" style="ellipse;whiteSpace=wrap;html=1;labelBackgroundColor=none;fillColor=#FAE5C7;strokeColor=#000000;fontColor=#143642;" vertex="1" parent="1">
          <mxGeometry x="845" y="1300" width="102" height="40" as="geometry" />
        </mxCell>
        <mxCell id="gUdXLzQhLkX2P0Ms3YXl-20" value="" style="edgeStyle=none;html=1;endSize=12;endArrow=block;endFill=0;rounded=0;entryX=0.772;entryY=0.914;entryDx=0;entryDy=0;labelBackgroundColor=none;strokeColor=#000000;fontColor=default;entryPerimeter=0;exitX=0.396;exitY=0.015;exitDx=0;exitDy=0;exitPerimeter=0;" edge="1" parent="1" source="gUdXLzQhLkX2P0Ms3YXl-19" target="UEbt48Vx01n2Dc3In6SP-9">
          <mxGeometry width="160" relative="1" as="geometry">
            <mxPoint x="923" y="1315" as="sourcePoint" />
            <mxPoint x="947" y="1288" as="targetPoint" />
          </mxGeometry>
        </mxCell>
        <mxCell id="gUdXLzQhLkX2P0Ms3YXl-21" value="통계 데이터" style="ellipse;whiteSpace=wrap;html=1;labelBackgroundColor=none;fillColor=#FAE5C7;strokeColor=#000000;fontColor=#143642;" vertex="1" parent="1">
          <mxGeometry x="479.5" y="253" width="100" height="40" as="geometry" />
        </mxCell>
        <mxCell id="gUdXLzQhLkX2P0Ms3YXl-22" value="" style="endArrow=classic;html=1;rounded=0;exitX=0.5;exitY=0.5;exitDx=0;exitDy=0;exitPerimeter=0;entryX=0.5;entryY=0;entryDx=0;entryDy=0;labelBackgroundColor=none;strokeColor=#000000;fontColor=default;" edge="1" parent="1" source="6D0cX5ulEbAhDJw4pdyL-93" target="gUdXLzQhLkX2P0Ms3YXl-21">
          <mxGeometry width="50" height="50" relative="1" as="geometry">
            <mxPoint x="533" y="150" as="sourcePoint" />
            <mxPoint x="390" y="185" as="targetPoint" />
          </mxGeometry>
        </mxCell>
        <mxCell id="gUdXLzQhLkX2P0Ms3YXl-23" value="통계데이터 조회" style="ellipse;whiteSpace=wrap;html=1;labelBackgroundColor=none;fillColor=#FAE5C7;strokeColor=#000000;fontColor=#143642;" vertex="1" parent="1">
          <mxGeometry x="498.5" y="320" width="70" height="40" as="geometry" />
        </mxCell>
        <mxCell id="gUdXLzQhLkX2P0Ms3YXl-24" value="" style="edgeStyle=none;html=1;endSize=12;endArrow=block;endFill=0;rounded=0;exitX=0.5;exitY=0;exitDx=0;exitDy=0;labelBackgroundColor=none;strokeColor=#000000;fontColor=default;" edge="1" parent="1" source="gUdXLzQhLkX2P0Ms3YXl-23" target="gUdXLzQhLkX2P0Ms3YXl-21">
          <mxGeometry width="160" relative="1" as="geometry">
            <mxPoint x="507.5" y="323" as="sourcePoint" />
            <mxPoint x="525" y="285" as="targetPoint" />
          </mxGeometry>
        </mxCell>
        <mxCell id="gUdXLzQhLkX2P0Ms3YXl-26" value="이용후기 등록 권한 부여" style="ellipse;whiteSpace=wrap;html=1;labelBackgroundColor=none;fillColor=#FAE5C7;strokeColor=#000000;fontColor=#143642;" vertex="1" parent="1">
          <mxGeometry x="442" y="625" width="60" height="50" as="geometry" />
        </mxCell>
        <mxCell id="gUdXLzQhLkX2P0Ms3YXl-29" value="&amp;lt;&amp;lt;include&amp;gt;&amp;gt;" style="html=1;verticalAlign=bottom;labelBackgroundColor=none;endArrow=open;endFill=0;dashed=1;rounded=0;entryX=0.375;entryY=0.038;entryDx=0;entryDy=0;strokeColor=#000000;fontColor=default;exitX=0.5;exitY=1;exitDx=0;exitDy=0;entryPerimeter=0;" edge="1" parent="1" source="gUdXLzQhLkX2P0Ms3YXl-26" target="UEbt48Vx01n2Dc3In6SP-28">
          <mxGeometry width="160" relative="1" as="geometry">
            <mxPoint x="475" y="696.5" as="sourcePoint" />
            <mxPoint x="530" y="678.5" as="targetPoint" />
          </mxGeometry>
        </mxCell>
        <mxCell id="gUdXLzQhLkX2P0Ms3YXl-31" value="" style="endArrow=classic;html=1;rounded=0;labelBackgroundColor=none;strokeColor=#000000;fontColor=default;exitX=0.5;exitY=0.5;exitDx=0;exitDy=0;exitPerimeter=0;entryX=0.5;entryY=1;entryDx=0;entryDy=0;" edge="1" parent="1" source="ycFsrCb-pIJ5EY6Nro4r-18" target="gUdXLzQhLkX2P0Ms3YXl-32">
          <mxGeometry width="50" height="50" relative="1" as="geometry">
            <mxPoint x="409" y="1440" as="sourcePoint" />
            <mxPoint x="379" y="1061" as="targetPoint" />
            <Array as="points" />
          </mxGeometry>
        </mxCell>
        <mxCell id="gUdXLzQhLkX2P0Ms3YXl-30" value="작업단계" style="ellipse;whiteSpace=wrap;html=1;labelBackgroundColor=none;fillColor=#FAE5C7;strokeColor=#000000;fontColor=#143642;" vertex="1" parent="1">
          <mxGeometry x="289.5" y="904" width="120" height="80" as="geometry" />
        </mxCell>
        <mxCell id="gUdXLzQhLkX2P0Ms3YXl-32" value="작업 단계&lt;div&gt;조회&lt;/div&gt;" style="ellipse;whiteSpace=wrap;html=1;labelBackgroundColor=none;fillColor=#FAE5C7;strokeColor=#000000;fontColor=#143642;" vertex="1" parent="1">
          <mxGeometry x="340.5" y="1020" width="68" height="40" as="geometry" />
        </mxCell>
        <mxCell id="gUdXLzQhLkX2P0Ms3YXl-33" value="" style="edgeStyle=none;html=1;endSize=12;endArrow=block;endFill=0;rounded=0;labelBackgroundColor=none;strokeColor=#000000;fontColor=default;exitX=0.353;exitY=0.042;exitDx=0;exitDy=0;exitPerimeter=0;" edge="1" parent="1" source="gUdXLzQhLkX2P0Ms3YXl-32">
          <mxGeometry width="160" relative="1" as="geometry">
            <mxPoint x="152" y="1050" as="sourcePoint" />
            <mxPoint x="361" y="981" as="targetPoint" />
            <Array as="points" />
          </mxGeometry>
        </mxCell>
        <mxCell id="gUdXLzQhLkX2P0Ms3YXl-37" value="작업 단계&lt;div&gt;수정&lt;/div&gt;" style="ellipse;whiteSpace=wrap;html=1;labelBackgroundColor=none;fillColor=#FAE5C7;strokeColor=#000000;fontColor=#143642;" vertex="1" parent="1">
          <mxGeometry x="422" y="973" width="68" height="40" as="geometry" />
        </mxCell>
        <mxCell id="gUdXLzQhLkX2P0Ms3YXl-38" value="" style="edgeStyle=none;html=1;endSize=12;endArrow=block;endFill=0;rounded=0;labelBackgroundColor=none;strokeColor=#000000;fontColor=default;exitX=0;exitY=0;exitDx=0;exitDy=0;entryX=0.936;entryY=0.711;entryDx=0;entryDy=0;entryPerimeter=0;" edge="1" parent="1" source="gUdXLzQhLkX2P0Ms3YXl-37" target="gUdXLzQhLkX2P0Ms3YXl-30">
          <mxGeometry width="160" relative="1" as="geometry">
            <mxPoint x="375" y="1032" as="sourcePoint" />
            <mxPoint x="371" y="991" as="targetPoint" />
            <Array as="points" />
          </mxGeometry>
        </mxCell>
        <mxCell id="gUdXLzQhLkX2P0Ms3YXl-41" value="즐겨찾기" style="ellipse;whiteSpace=wrap;html=1;labelBackgroundColor=none;fillColor=#FAE5C7;strokeColor=#000000;fontColor=#143642;" vertex="1" parent="1">
          <mxGeometry x="650" y="1410" width="100" height="50" as="geometry" />
        </mxCell>
        <mxCell id="gUdXLzQhLkX2P0Ms3YXl-42" value="즐겨찾기 등록" style="ellipse;whiteSpace=wrap;html=1;labelBackgroundColor=none;fillColor=#FAE5C7;strokeColor=#000000;fontColor=#143642;" vertex="1" parent="1">
          <mxGeometry x="740" y="1352" width="85" height="40" as="geometry" />
        </mxCell>
        <mxCell id="gUdXLzQhLkX2P0Ms3YXl-43" value="" style="edgeStyle=none;html=1;endSize=12;endArrow=block;endFill=0;rounded=0;labelBackgroundColor=none;strokeColor=#000000;fontColor=default;exitX=0;exitY=1;exitDx=0;exitDy=0;" edge="1" parent="1" source="gUdXLzQhLkX2P0Ms3YXl-42" target="gUdXLzQhLkX2P0Ms3YXl-41">
          <mxGeometry width="160" relative="1" as="geometry">
            <mxPoint x="170" y="1088" as="sourcePoint" />
            <mxPoint x="209" y="1065" as="targetPoint" />
            <Array as="points" />
          </mxGeometry>
        </mxCell>
        <mxCell id="gUdXLzQhLkX2P0Ms3YXl-44" value="즐겨찾기 취소" style="ellipse;whiteSpace=wrap;html=1;labelBackgroundColor=none;fillColor=#FAE5C7;strokeColor=#000000;fontColor=#143642;" vertex="1" parent="1">
          <mxGeometry x="792.5" y="1405" width="85" height="40" as="geometry" />
        </mxCell>
        <mxCell id="gUdXLzQhLkX2P0Ms3YXl-45" value="" style="edgeStyle=none;html=1;endSize=12;endArrow=block;endFill=0;rounded=0;labelBackgroundColor=none;strokeColor=#000000;fontColor=default;exitX=0;exitY=0.5;exitDx=0;exitDy=0;" edge="1" parent="1" source="gUdXLzQhLkX2P0Ms3YXl-44">
          <mxGeometry width="160" relative="1" as="geometry">
            <mxPoint x="99" y="1347" as="sourcePoint" />
            <mxPoint x="750" y="1429" as="targetPoint" />
            <Array as="points" />
          </mxGeometry>
        </mxCell>
        <mxCell id="UEbt48Vx01n2Dc3In6SP-31" value="후기 삭제" style="ellipse;whiteSpace=wrap;html=1;labelBackgroundColor=none;fillColor=#FAE5C7;strokeColor=#000000;fontColor=#143642;" parent="1" vertex="1">
          <mxGeometry x="575" y="682.5" width="70" height="40" as="geometry" />
        </mxCell>
        <mxCell id="gUdXLzQhLkX2P0Ms3YXl-51" value="" style="edgeStyle=none;html=1;endSize=12;endArrow=block;endFill=0;rounded=0;exitX=0;exitY=1;exitDx=0;exitDy=0;entryX=0.681;entryY=0.051;entryDx=0;entryDy=0;entryPerimeter=0;labelBackgroundColor=none;strokeColor=#000000;fontColor=default;" edge="1" parent="1" source="UEbt48Vx01n2Dc3In6SP-61" target="UEbt48Vx01n2Dc3In6SP-55">
          <mxGeometry width="160" relative="1" as="geometry">
            <mxPoint x="595" y="727" as="sourcePoint" />
            <mxPoint x="578" y="776" as="targetPoint" />
          </mxGeometry>
        </mxCell>
        <mxCell id="gUdXLzQhLkX2P0Ms3YXl-52" value="상담 상세 조회" style="ellipse;whiteSpace=wrap;html=1;labelBackgroundColor=none;fillColor=#FAE5C7;strokeColor=#000000;fontColor=#143642;" vertex="1" parent="1">
          <mxGeometry x="821.25" y="528" width="74.75" height="64" as="geometry" />
        </mxCell>
        <mxCell id="gUdXLzQhLkX2P0Ms3YXl-54" value="&amp;lt;&amp;lt;extend&amp;gt;&amp;gt;" style="html=1;verticalAlign=bottom;labelBackgroundColor=none;endArrow=open;endFill=0;dashed=1;rounded=0;exitX=0;exitY=1;exitDx=0;exitDy=0;strokeColor=#000000;fontColor=default;entryX=0.922;entryY=0.141;entryDx=0;entryDy=0;entryPerimeter=0;" edge="1" parent="1" target="UEbt48Vx01n2Dc3In6SP-61">
          <mxGeometry width="160" relative="1" as="geometry">
            <mxPoint x="837.5" y="587" as="sourcePoint" />
            <mxPoint x="791" y="633" as="targetPoint" />
          </mxGeometry>
        </mxCell>
        <mxCell id="gUdXLzQhLkX2P0Ms3YXl-91" style="edgeStyle=none;curved=1;rounded=0;orthogonalLoop=1;jettySize=auto;html=1;exitX=0.5;exitY=0.5;exitDx=0;exitDy=0;exitPerimeter=0;strokeColor=#000000;fontSize=12;fontColor=#143642;startSize=8;endSize=8;fillColor=#FAE5C7;" edge="1" parent="1" source="6D0cX5ulEbAhDJw4pdyL-93" target="gUdXLzQhLkX2P0Ms3YXl-88">
          <mxGeometry relative="1" as="geometry" />
        </mxCell>
        <mxCell id="6D0cX5ulEbAhDJw4pdyL-93" value="관리자" style="shape=umlActor;verticalLabelPosition=bottom;verticalAlign=top;html=1;outlineConnect=0;labelBackgroundColor=none;fillColor=#FAE5C7;strokeColor=#000000;fontColor=#143642;" parent="1" vertex="1">
          <mxGeometry x="507.5" y="110" width="30" height="60" as="geometry" />
        </mxCell>
        <mxCell id="gUdXLzQhLkX2P0Ms3YXl-58" value="기업용&amp;nbsp;&lt;br&gt;&lt;div&gt;&lt;span style=&quot;color: rgba(0, 0, 0, 0); font-family: monospace; font-size: 0px; text-align: start; text-wrap-mode: nowrap; background-color: transparent;&quot;&gt;%3CmxGraphModel%3E%3Croot%3E%3CmxCell%20id%3D%220%22%2F%3E%3CmxCell%20id%3D%221%22%20parent%3D%220%22%2F%3E%3CmxCell%20id%3D%222%22%20value%3D%22%EC%84%A4%EB%AC%B8%EC%A7%80%20%EC%9E%91%EC%84%B1%22%20style%3D%22ellipse%3BwhiteSpace%3Dwrap%3Bhtml%3D1%3BlabelBackgroundColor%3Dnone%3BfillColor%3D%23FAE5C7%3BstrokeColor%3D%23000000%3BfontColor%3D%23143642%3B%22%20vertex%3D%221%22%20parent%3D%221%22%3E%3CmxGeometry%20x%3D%22101%22%20y%3D%221072%22%20width%3D%2270%22%20height%3D%2240%22%20as%3D%22geometry%22%2F%3E%3C%2FmxCell%3E%3C%2Froot%3E%3C%2FmxGraphModel%3E&lt;/span&gt;회원가입&lt;/div&gt;" style="ellipse;whiteSpace=wrap;html=1;labelBackgroundColor=none;fillColor=#FAE5C7;strokeColor=#000000;fontColor=#143642;" vertex="1" parent="1">
          <mxGeometry x="101" y="1289" width="70" height="40" as="geometry" />
        </mxCell>
        <mxCell id="gUdXLzQhLkX2P0Ms3YXl-59" value="회원용&amp;nbsp;&lt;br&gt;&lt;div&gt;&lt;span style=&quot;color: rgba(0, 0, 0, 0); font-family: monospace; font-size: 0px; text-align: start; text-wrap-mode: nowrap; background-color: transparent;&quot;&gt;%3CmxGraphModel%3E%3Croot%3E%3CmxCell%20id%3D%220%22%2F%3E%3CmxCell%20id%3D%221%22%20parent%3D%220%22%2F%3E%3CmxCell%20id%3D%222%22%20value%3D%22%EC%84%A4%EB%AC%B8%EC%A7%80%20%EC%9E%91%EC%84%B1%22%20style%3D%22ellipse%3BwhiteSpace%3Dwrap%3Bhtml%3D1%3BlabelBackgroundColor%3Dnone%3BfillColor%3D%23FAE5C7%3BstrokeColor%3D%23000000%3BfontColor%3D%23143642%3B%22%20vertex%3D%221%22%20parent%3D%221%22%3E%3CmxGeometry%20x%3D%22101%22%20y%3D%221072%22%20width%3D%2270%22%20height%3D%2240%22%20as%3D%22geometry%22%2F%3E%3C%2FmxCell%3E%3C%2Froot%3E%3C%2FmxGraphModel%3E&lt;/span&gt;회원가입&lt;/div&gt;" style="ellipse;whiteSpace=wrap;html=1;labelBackgroundColor=none;fillColor=#FAE5C7;strokeColor=#000000;fontColor=#143642;" vertex="1" parent="1">
          <mxGeometry x="187.5" y="1384" width="70" height="40" as="geometry" />
        </mxCell>
        <mxCell id="gUdXLzQhLkX2P0Ms3YXl-66" style="edgeStyle=none;curved=1;rounded=0;orthogonalLoop=1;jettySize=auto;html=1;exitX=0.5;exitY=0.5;exitDx=0;exitDy=0;exitPerimeter=0;entryX=0;entryY=0.5;entryDx=0;entryDy=0;strokeColor=#000000;fontSize=12;fontColor=#143642;startSize=8;endSize=8;fillColor=#FAE5C7;" edge="1" parent="1" source="ycFsrCb-pIJ5EY6Nro4r-18" target="gUdXLzQhLkX2P0Ms3YXl-41">
          <mxGeometry relative="1" as="geometry" />
        </mxCell>
        <mxCell id="gUdXLzQhLkX2P0Ms3YXl-70" value="본인 인증" style="ellipse;whiteSpace=wrap;html=1;labelBackgroundColor=none;fillColor=#FAE5C7;strokeColor=#000000;fontColor=#143642;" vertex="1" parent="1">
          <mxGeometry x="187.5" y="1294" width="70" height="40" as="geometry" />
        </mxCell>
        <mxCell id="gUdXLzQhLkX2P0Ms3YXl-71" value="&amp;lt;&amp;lt;include&amp;gt;&amp;gt;" style="html=1;verticalAlign=bottom;labelBackgroundColor=none;endArrow=open;endFill=0;dashed=1;rounded=0;strokeColor=#000000;fontColor=default;entryX=0.5;entryY=0;entryDx=0;entryDy=0;exitX=0.5;exitY=1;exitDx=0;exitDy=0;" edge="1" parent="1" source="gUdXLzQhLkX2P0Ms3YXl-70" target="gUdXLzQhLkX2P0Ms3YXl-59">
          <mxGeometry x="0.36" y="4" width="160" relative="1" as="geometry">
            <mxPoint x="278" y="1344" as="sourcePoint" />
            <mxPoint x="60" y="1313" as="targetPoint" />
            <mxPoint as="offset" />
          </mxGeometry>
        </mxCell>
        <mxCell id="gUdXLzQhLkX2P0Ms3YXl-72" value="&amp;lt;&amp;lt;extend&amp;gt;&amp;gt;" style="html=1;verticalAlign=bottom;labelBackgroundColor=none;endArrow=open;endFill=0;dashed=1;rounded=0;strokeColor=#000000;fontColor=default;exitX=0.975;exitY=0.347;exitDx=0;exitDy=0;exitPerimeter=0;entryX=0.033;entryY=0.612;entryDx=0;entryDy=0;entryPerimeter=0;" edge="1" parent="1" source="ycFsrCb-pIJ5EY6Nro4r-4" target="gUdXLzQhLkX2P0Ms3YXl-59">
          <mxGeometry x="-0.1515" y="-4" width="160" relative="1" as="geometry">
            <mxPoint x="167" y="1436.34" as="sourcePoint" />
            <mxPoint x="199.72254095269773" y="1416.9964042698277" as="targetPoint" />
            <Array as="points" />
            <mxPoint as="offset" />
          </mxGeometry>
        </mxCell>
        <mxCell id="gUdXLzQhLkX2P0Ms3YXl-73" value="&amp;lt;&amp;lt;extend&amp;gt;&amp;gt;" style="html=1;verticalAlign=bottom;labelBackgroundColor=none;endArrow=open;endFill=0;dashed=1;rounded=0;strokeColor=#000000;fontColor=default;entryX=0.5;entryY=1;entryDx=0;entryDy=0;exitX=0.805;exitY=0.109;exitDx=0;exitDy=0;exitPerimeter=0;" edge="1" parent="1" source="ycFsrCb-pIJ5EY6Nro4r-4" target="gUdXLzQhLkX2P0Ms3YXl-58">
          <mxGeometry x="-0.7333" width="160" relative="1" as="geometry">
            <mxPoint x="95" y="1424" as="sourcePoint" />
            <mxPoint x="76" y="1387" as="targetPoint" />
            <mxPoint as="offset" />
          </mxGeometry>
        </mxCell>
        <mxCell id="gUdXLzQhLkX2P0Ms3YXl-75" value="&amp;lt;&amp;lt;include&amp;gt;&amp;gt;" style="html=1;verticalAlign=bottom;labelBackgroundColor=none;endArrow=open;endFill=0;dashed=1;rounded=0;strokeColor=#000000;fontColor=default;exitX=0.82;exitY=0.868;exitDx=0;exitDy=0;exitPerimeter=0;entryX=0;entryY=0;entryDx=0;entryDy=0;" edge="1" parent="1" source="UEbt48Vx01n2Dc3In6SP-69" target="gUdXLzQhLkX2P0Ms3YXl-58">
          <mxGeometry x="0.3773" y="-13" width="160" relative="1" as="geometry">
            <mxPoint x="109" y="1332" as="sourcePoint" />
            <mxPoint x="83" y="1292" as="targetPoint" />
            <mxPoint as="offset" />
          </mxGeometry>
        </mxCell>
        <mxCell id="gUdXLzQhLkX2P0Ms3YXl-79" value="&amp;lt;&amp;lt;include&amp;gt;&amp;gt;" style="html=1;verticalAlign=bottom;labelBackgroundColor=none;endArrow=open;endFill=0;dashed=1;rounded=0;strokeColor=#000000;fontColor=default;entryX=0;entryY=0.5;entryDx=0;entryDy=0;exitX=1;exitY=0.5;exitDx=0;exitDy=0;" edge="1" parent="1" source="gUdXLzQhLkX2P0Ms3YXl-80" target="gUdXLzQhLkX2P0Ms3YXl-58">
          <mxGeometry x="-0.1952" y="-18" width="160" relative="1" as="geometry">
            <mxPoint x="35" y="1364" as="sourcePoint" />
            <mxPoint x="65" y="1303" as="targetPoint" />
            <mxPoint as="offset" />
          </mxGeometry>
        </mxCell>
        <mxCell id="gUdXLzQhLkX2P0Ms3YXl-80" value="사업자 증빙" style="ellipse;whiteSpace=wrap;html=1;labelBackgroundColor=none;fillColor=#FAE5C7;strokeColor=#000000;fontColor=#143642;" vertex="1" parent="1">
          <mxGeometry x="-14" y="1289" width="70" height="40" as="geometry" />
        </mxCell>
        <mxCell id="gUdXLzQhLkX2P0Ms3YXl-81" value="신고 신청" style="ellipse;whiteSpace=wrap;html=1;labelBackgroundColor=none;fillColor=#FAE5C7;strokeColor=#000000;fontColor=#143642;" vertex="1" parent="1">
          <mxGeometry x="60" y="1150" width="100" height="50" as="geometry" />
        </mxCell>
        <mxCell id="gUdXLzQhLkX2P0Ms3YXl-85" value="사업자 인증 확인" style="ellipse;whiteSpace=wrap;html=1;labelBackgroundColor=none;fillColor=#FAE5C7;strokeColor=#000000;fontColor=#143642;" vertex="1" parent="1">
          <mxGeometry x="593" y="207" width="100" height="50" as="geometry" />
        </mxCell>
        <mxCell id="gUdXLzQhLkX2P0Ms3YXl-87" value="" style="endArrow=classic;html=1;rounded=0;exitX=0.5;exitY=0.5;exitDx=0;exitDy=0;exitPerimeter=0;entryX=0.31;entryY=0.037;entryDx=0;entryDy=0;labelBackgroundColor=none;strokeColor=#000000;fontColor=default;entryPerimeter=0;" edge="1" parent="1" source="6D0cX5ulEbAhDJw4pdyL-93" target="gUdXLzQhLkX2P0Ms3YXl-85">
          <mxGeometry width="50" height="50" relative="1" as="geometry">
            <mxPoint x="533" y="150" as="sourcePoint" />
            <mxPoint x="390" y="185" as="targetPoint" />
          </mxGeometry>
        </mxCell>
        <mxCell id="gUdXLzQhLkX2P0Ms3YXl-88" value="게시글 조회" style="ellipse;whiteSpace=wrap;html=1;labelBackgroundColor=none;fillColor=#FAE5C7;strokeColor=#000000;fontColor=#143642;" vertex="1" parent="1">
          <mxGeometry x="380" y="434" width="70" height="40" as="geometry" />
        </mxCell>
        <mxCell id="gUdXLzQhLkX2P0Ms3YXl-90" value="" style="edgeStyle=none;html=1;endSize=12;endArrow=block;endFill=0;rounded=0;exitX=0;exitY=0.5;exitDx=0;exitDy=0;labelBackgroundColor=none;strokeColor=#000000;fontColor=default;entryX=1;entryY=0.5;entryDx=0;entryDy=0;" edge="1" parent="1" source="gUdXLzQhLkX2P0Ms3YXl-88" target="UEbt48Vx01n2Dc3In6SP-19">
          <mxGeometry width="160" relative="1" as="geometry">
            <mxPoint x="364" y="364" as="sourcePoint" />
            <mxPoint x="314" y="421" as="targetPoint" />
            <Array as="points" />
          </mxGeometry>
        </mxCell>
        <mxCell id="gUdXLzQhLkX2P0Ms3YXl-93" value="&amp;lt;&amp;lt;include&amp;gt;&amp;gt;" style="html=1;verticalAlign=bottom;labelBackgroundColor=none;endArrow=open;endFill=0;dashed=1;rounded=0;strokeColor=#000000;fontColor=default;exitX=0.414;exitY=-0.002;exitDx=0;exitDy=0;exitPerimeter=0;entryX=0.5;entryY=1;entryDx=0;entryDy=0;" edge="1" parent="1" source="gUdXLzQhLkX2P0Ms3YXl-94" target="gUdXLzQhLkX2P0Ms3YXl-85">
          <mxGeometry x="-0.3392" y="8" width="160" relative="1" as="geometry">
            <mxPoint x="644.52" y="314" as="sourcePoint" />
            <mxPoint x="620" y="272" as="targetPoint" />
            <mxPoint as="offset" />
          </mxGeometry>
        </mxCell>
        <mxCell id="gUdXLzQhLkX2P0Ms3YXl-94" value="&lt;div&gt;사업자&lt;/div&gt;권한 부여" style="ellipse;whiteSpace=wrap;html=1;labelBackgroundColor=none;fillColor=#FAE5C7;strokeColor=#000000;fontColor=#143642;" vertex="1" parent="1">
          <mxGeometry x="628" y="303" width="70" height="40" as="geometry" />
        </mxCell>
        <mxCell id="gUdXLzQhLkX2P0Ms3YXl-96" value="설문지 양식 작성" style="ellipse;whiteSpace=wrap;html=1;labelBackgroundColor=none;fillColor=#FAE5C7;strokeColor=#000000;fontColor=#143642;" vertex="1" parent="1">
          <mxGeometry x="349" y="220" width="91" height="40" as="geometry" />
        </mxCell>
        <mxCell id="gUdXLzQhLkX2P0Ms3YXl-97" style="edgeStyle=none;curved=1;rounded=0;orthogonalLoop=1;jettySize=auto;html=1;exitX=0.5;exitY=0.5;exitDx=0;exitDy=0;exitPerimeter=0;strokeColor=#000000;fontSize=12;fontColor=#143642;startSize=8;endSize=8;fillColor=#FAE5C7;entryX=0.76;entryY=0.055;entryDx=0;entryDy=0;entryPerimeter=0;" edge="1" parent="1" source="6D0cX5ulEbAhDJw4pdyL-93" target="gUdXLzQhLkX2P0Ms3YXl-96">
          <mxGeometry relative="1" as="geometry">
            <mxPoint x="419" y="222" as="targetPoint" />
          </mxGeometry>
        </mxCell>
        <mxCell id="gUdXLzQhLkX2P0Ms3YXl-98" value="" style="edgeStyle=none;curved=1;rounded=0;orthogonalLoop=1;jettySize=auto;html=1;exitX=0.5;exitY=0.5;exitDx=0;exitDy=0;exitPerimeter=0;strokeColor=#000000;fontSize=12;fontColor=#143642;startSize=8;endSize=8;fillColor=#FAE5C7;entryX=0.14;entryY=0.204;entryDx=0;entryDy=0;entryPerimeter=0;" edge="1" parent="1">
          <mxGeometry relative="1" as="geometry">
            <mxPoint x="793.8999999999999" y="904" as="targetPoint" />
            <mxPoint x="521" y="138.7" as="sourcePoint" />
          </mxGeometry>
        </mxCell>
        <mxCell id="gUdXLzQhLkX2P0Ms3YXl-12" value="게시글&lt;div&gt;작성&lt;/div&gt;" style="ellipse;whiteSpace=wrap;html=1;labelBackgroundColor=none;fillColor=#FAE5C7;strokeColor=#000000;fontColor=#143642;" vertex="1" parent="1">
          <mxGeometry x="743" y="773" width="70" height="60" as="geometry" />
        </mxCell>
        <mxCell id="UEbt48Vx01n2Dc3In6SP-33" value="업체 관리" style="ellipse;whiteSpace=wrap;html=1;labelBackgroundColor=none;fillColor=#FAE5C7;strokeColor=#000000;fontColor=#143642;" parent="1" vertex="1">
          <mxGeometry x="579.5" y="474" width="100" height="106" as="geometry" />
        </mxCell>
        <mxCell id="UEbt48Vx01n2Dc3In6SP-47" value="업체 정보&lt;div&gt;수정&lt;/div&gt;" style="ellipse;whiteSpace=wrap;html=1;labelBackgroundColor=none;fillColor=#FAE5C7;strokeColor=#000000;fontColor=#143642;" parent="1" vertex="1">
          <mxGeometry x="584.5" y="389" width="70" height="40" as="geometry" />
        </mxCell>
        <mxCell id="gUdXLzQhLkX2P0Ms3YXl-101" value="게시글&lt;div&gt;수정&lt;/div&gt;" style="ellipse;whiteSpace=wrap;html=1;labelBackgroundColor=none;fillColor=#FAE5C7;strokeColor=#000000;fontColor=#143642;" vertex="1" parent="1">
          <mxGeometry x="938" y="827.5" width="70" height="60" as="geometry" />
        </mxCell>
        <mxCell id="gUdXLzQhLkX2P0Ms3YXl-102" value="&amp;lt;&amp;lt;extend&amp;gt;&amp;gt;" style="html=1;verticalAlign=bottom;labelBackgroundColor=none;endArrow=open;endFill=0;dashed=1;rounded=0;exitX=0.069;exitY=0.735;exitDx=0;exitDy=0;strokeColor=#000000;fontColor=default;exitPerimeter=0;entryX=0.993;entryY=0.459;entryDx=0;entryDy=0;entryPerimeter=0;" edge="1" parent="1" source="gUdXLzQhLkX2P0Ms3YXl-101">
          <mxGeometry x="-0.0027" width="160" relative="1" as="geometry">
            <mxPoint x="954.5" y="904" as="sourcePoint" />
            <mxPoint x="879.5" y="906" as="targetPoint" />
            <mxPoint as="offset" />
          </mxGeometry>
        </mxCell>
        <mxCell id="gUdXLzQhLkX2P0Ms3YXl-103" value="게시글&lt;div&gt;삭제&lt;/div&gt;" style="ellipse;whiteSpace=wrap;html=1;labelBackgroundColor=none;fillColor=#FAE5C7;strokeColor=#000000;fontColor=#143642;" vertex="1" parent="1">
          <mxGeometry x="685" y="814" width="70" height="60" as="geometry" />
        </mxCell>
        <mxCell id="gUdXLzQhLkX2P0Ms3YXl-104" value="&amp;lt;&amp;lt;extend&amp;gt;&amp;gt;" style="html=1;verticalAlign=bottom;labelBackgroundColor=none;endArrow=open;endFill=0;dashed=1;rounded=0;entryX=0.078;entryY=0.198;entryDx=0;entryDy=0;strokeColor=#000000;fontColor=default;entryPerimeter=0;exitX=0.849;exitY=0.876;exitDx=0;exitDy=0;exitPerimeter=0;" edge="1" parent="1" source="gUdXLzQhLkX2P0Ms3YXl-103" target="UEbt48Vx01n2Dc3In6SP-24">
          <mxGeometry x="0.5742" y="-1" width="160" relative="1" as="geometry">
            <mxPoint x="743" y="864" as="sourcePoint" />
            <mxPoint x="767" y="927" as="targetPoint" />
            <mxPoint as="offset" />
          </mxGeometry>
        </mxCell>
      </root>
    </mxGraphModel>
  </diagram>
</mxfile>
